<svg id="Capa_1" data-name="Capa 1" xmlns="http://www.w3.org/2000/svg" viewBox="0 0 262.51 255.13"><defs><style>.cls-1{fill:none;stroke:#fff;stroke-miterlimit:10;stroke-width:1.7px;}</style></defs><title>logo sena</title><path class="cls-1" d="M47.43,113.15c3.14-1,6-2,8.91-2.83,7.84-2.27,15.71-4.46,23.56-6.7a5.12,5.12,0,0,0,1.5-.69q10.93-7.46,21.84-15a4,4,0,0,0,1-1q7.5-10.89,15-21.82a5.17,5.17,0,0,0,.65-1.41q4.65-15.87,9.28-31.75c.06-.2.16-.39.32-.78.82,2.51,1.66,4.81,2.34,7.17,2.43,8.45,4.8,16.92,7.21,25.37a5,5,0,0,0,.66,1.41Q147.1,76,154.57,86.87A4.78,4.78,0,0,0,155.73,88c7.21,5,14.41,9.94,21.67,14.81a13.33,13.33,0,0,0,3.69,1.35q14.66,4.33,29.32,8.64a1.33,1.33,0,0,1,.73.47c-3.38.21-6.76.47-10.15.62-5.31.23-10.63.46-16,.55-6.93.13-13.87.29-20.8.16-9.55-.19-19.1-.61-28.64-1-2.17-.08-4.33-.4-6.49-.4s-4.05.31-6.07.43c-4.09.22-8.18.47-12.27.58-7.77.19-15.54.41-23.31.4s-15.76-.2-23.63-.46c-5.17-.17-10.34-.6-15.5-.92a8.78,8.78,0,0,1-.9-.15m81.84-.12c-.36-6.62-.71-13.16-1.06-19.7-.11,0-.18,0-.24,0-4.5,1.39-9,2.77-13.49,4.21a1.57,1.57,0,0,0-.79.93c-.86,2.7-1.64,5.41-2.48,8.11-.55,1.79-1.15,3.57-1.75,5.42L129.27,113m20-1.06a1.34,1.34,0,0,0,0-.35c-1.39-4.5-2.78-9-4.2-13.5a1.37,1.37,0,0,0-.82-.65c-1.55-.51-3.13-1-4.7-1.44-3-.91-5.91-1.84-8.9-2.77-.36,6.61-.71,13.16-1.07,19.77L149.29,112M114.57,95.41l13.5-2.56V73.52c-.54.39-.85.6-1.14.83-2,1.53-3.93,3.18-6,4.57a6.93,6.93,0,0,0-3.13,4.54c-.92,4-2.1,7.87-3.21,12m16.06-2.59,13.62,2.59c0-.25,0-.39-.05-.51-1.22-4.41-2.41-8.82-3.68-13.2a3.48,3.48,0,0,0-1.13-1.63c-1.34-1.12-2.78-2.12-4.18-3.18s-2.74-2.11-4.25-3.27c-.11,6.5-.22,12.79-.33,19.2m19.14,19H169a4.85,4.85,0,0,0-.3-.56c-2.13-2.82-4.26-5.65-6.43-8.43a2.45,2.45,0,0,0-1.22-.7c-2.65-.74-5.32-1.43-8-2.16-1.93-.53-3.85-1.08-5.85-1.65.88,4.63,1.73,9.11,2.56,13.5M111.66,98.34c-4.78,1.3-9.46,2.55-14.12,3.85a2.24,2.24,0,0,0-1.05.78c-1.35,1.74-2.65,3.52-4,5.28-.84,1.1-1.69,2.19-2.75,3.55H109.1q1.25-6.55,2.56-13.46m7.66-20.45c2.8-1.59,5.33-3,7.9-4.46A1.38,1.38,0,0,0,128,72c0-4,0-8,.07-12.07,0-1.76,0-3.53,0-5.47-1.15,2-2.14,3.88-3.31,5.68A18.61,18.61,0,0,0,122,67c-.21,1.17-.53,2.31-.82,3.46-.59,2.4-1.18,4.79-1.85,7.46M70.77,111.83h4.12c3.5,0,7,0,10.5-.06,1.25,0,2.74.32,3.69-.24s1.36-2,2-3.11c1-1.71,2-3.43,3-5.26-.32,0-.49,0-.65.08l-9.33,2.34a24,24,0,0,0-4.82,1.31c-2.92,1.48-5.68,3.27-8.54,4.94m94-8.75c.25.46.38.73.54,1,1.28,2.25,2.59,4.48,3.83,6.74a1.55,1.55,0,0,0,1.54.93c5,0,9.93.12,14.9.18.84,0,1.68,0,2.72,0-3-1.77-5.86-3.43-8.7-5.07a3.56,3.56,0,0,0-1-.34l-8.32-2.06-5.53-1.37M139.46,77.86c-.07-.45-.09-.71-.15-1-.37-1.53-.83-3-1.13-4.57-1.11-5.58-2.71-11-6.1-15.65a15.43,15.43,0,0,1-.93-1.64,2.93,2.93,0,0,0-.19-.27c0,4.94.15,10-.07,15.12-.1,2.39.56,3.76,2.77,4.71a57.15,57.15,0,0,1,5.8,3.26m19.86,20.9-.79-1.16c-1.53-2.17-3-4.38-4.61-6.5a11.67,11.67,0,0,0-2.41-2.4c-2.23-1.67-4.55-3.24-6.84-4.84-.21-.14-.42-.26-.76-.47.91,4.16,1.77,8.14,2.68,12.11a.94.94,0,0,0,.62.54c4,.91,7.94,1.79,12.11,2.72M115,83.43a1.91,1.91,0,0,0-.46.2l-8.23,5.8a2,2,0,0,0-.53.5q-3,4.27-6,8.59s0,.1,0,.19c3.1-.69,6.17-1.55,9.3-2,2.34-.34,3.51-1.19,3.83-3.69.42-3.2,1.33-6.33,2.06-9.58m69.23,24.46c1.62,1.26,3.13,2.48,4.69,3.63a2.57,2.57,0,0,0,1.31.47c4.36.22,8.72.41,13.09.61l4.56.24v-.06l-23.64-4.89M129.78,34.41a3.61,3.61,0,0,0,0,.51q.41,8.8.84,17.59a1.35,1.35,0,0,0,.13.71c1.29,1.71,2.61,3.39,4,5.23-1.68-8.13-3.32-16-5-24m-5.65,24c1.29-1.66,2.5-3.16,3.63-4.7a2.76,2.76,0,0,0,.5-1.41c.23-4.6.42-9.21.63-13.82.06-1.34.14-2.67.22-4.19-1.68,8.12-3.31,16-5,24.12M74.67,107.89,51,112.79c1.08,0,2.15-.1,3.23-.15,4.88-.22,9.77-.42,14.66-.65a1.44,1.44,0,0,0,.77-.22c1.64-1.25,3.25-2.53,5-3.88m35.58-24.6.12.14c1.73-1.08,3.47-2.14,5.19-3.24.19-.12.27-.46.33-.72q.64-2.59,1.27-5.18c.15-.65.31-1.29.46-1.93-2.46,3.38-4.71,6.82-7,10.26-.14.22-.28.44-.41.67m31.23-11-.25,0a23.44,23.44,0,0,1,.86,3.64,6.91,6.91,0,0,0,4.55,6.31,14.76,14.76,0,0,1,1.87,1.1c0-.05.05-.1.08-.14l-7.11-11m-53.19,29,.06.16,7.48-1.85a1.12,1.12,0,0,0,.62-.32c1.09-1.72,2.15-3.46,3.22-5.2l-.12-.1-11.26,7.31m82.29.17a.78.78,0,0,0,0-.14L159.32,94c.93,1.81,2,3.5,3,5.17a.94.94,0,0,0,.55.41c2.56.65,5.12,1.27,7.68,1.9"/><path class="cls-1" d="M211.17,136.65c-2.07.68-4.12,1.41-6.21,2-8.65,2.49-17.31,4.93-26,7.41a5.62,5.62,0,0,0-1.58.76q-10.84,7.4-21.66,14.82a5,5,0,0,0-1.16,1.17c-4.9,7.12-9.81,14.24-14.64,21.41a12.34,12.34,0,0,0-1.36,3.35q-4.46,15.1-8.88,30.22a6.29,6.29,0,0,1-.31.69c-.56-1.71-1.11-3.23-1.56-4.77q-4-13.83-8-27.66a5.39,5.39,0,0,0-.69-1.5q-7.4-10.84-14.85-21.65a5.06,5.06,0,0,0-1.31-1.3c-7.09-4.89-14.16-9.79-21.32-14.57a15.64,15.64,0,0,0-4.25-1.61c-9.77-2.91-19.54-5.77-29.31-8.65-.15,0-.29-.13-.69-.31,2.21-.17,4.13-.38,6.06-.46,6.43-.28,12.87-.57,19.3-.74,6.23-.15,12.47-.26,18.7-.2,8.15.08,16.31.28,24.46.53,4.86.15,9.71.76,14.56.71,5.87-.06,11.74-.66,17.61-.9,4.58-.2,9.17-.27,13.76-.28,7.56,0,15.13-.11,22.69.06,7.41.17,14.82.63,22.23,1,1.43.06,2.86.17,4.29.25l.06.23m-80.5,19.8a3.1,3.1,0,0,0,.38-.07c4.46-1.38,8.92-2.76,13.37-4.18a1.59,1.59,0,0,0,.78-.93c.91-2.89,1.76-5.8,2.65-8.7.5-1.62,1-3.22,1.54-4.81l-19.79-1.07q.53,9.84,1.07,19.76m-21.14-18.69a1.87,1.87,0,0,0,0,.4c1.38,4.43,2.75,8.86,4.18,13.28a1.65,1.65,0,0,0,1,.86c2.59.83,5.21,1.59,7.81,2.39,1.89.58,3.77,1.2,5.66,1.8.36-6.69.72-13.27,1.07-19.79l-19.74,1.06m5.14,16.57a1,1,0,0,0,0,.27c1.27,4.65,2.52,9.29,3.82,13.92a2.09,2.09,0,0,0,.75.95c2.19,1.68,4.4,3.34,6.6,5,.68.51,1.35,1,2.29,1.77V156.88l-13.41-2.55m29.64,0-13.68,2.6.33,19c.19,0,.23,0,.25,0a68.65,68.65,0,0,1,5.62-4.22,9.59,9.59,0,0,0,4.66-6.85c.69-3.51,1.84-6.93,2.82-10.52m2.91-3c.33-.06.56-.09.79-.15,3.33-.92,6.61-2,10-2.71a9,9,0,0,0,6.37-4.29c1.32-2.12,3-4,4.63-6.13l-19.19-.35c-.85,4.5-1.7,9-2.59,13.63M90,138.07c0,.18,0,.26.06.31q3.27,4.31,6.56,8.58a1.85,1.85,0,0,0,.93.58c3.06.86,6.12,1.68,9.18,2.52l4.91,1.35c-.89-4.67-1.75-9.17-2.6-13.68l-19,.34m38.09,57.25c0-1,0-1.63,0-2.28,0-5.15-.09-10.29-.09-15.44a1.32,1.32,0,0,0-.8-1.29c-2-1.08-3.9-2.21-5.84-3.32l-2-1.16c.09.47.13.74.19,1,.52,2.09,1.09,4.18,1.55,6.29,1,4.3,2,8.54,4.67,12.2a45.47,45.47,0,0,1,2.33,4M131,195s.18-.27.33-.53c1.38-2.39,2.78-4.77,4.14-7.17a8,8,0,0,0,.8-1.92c1.06-4.19,2.09-8.39,3.12-12.59a6.14,6.14,0,0,0,.07-.83c-2.73,1.55-5.35,3-7.94,4.53a1.22,1.22,0,0,0-.5.9c0,5.93,0,11.86,0,17.61m-60-57.1,0,.17c2.36,1.37,4.69,2.79,7.09,4.09a19.7,19.7,0,0,0,3.35,1.39c1.09.35,2.23.55,3.35.82l9.36,2.32c-.24-.46-.4-.8-.58-1.12-1.27-2.21-2.57-4.41-3.8-6.65a1.44,1.44,0,0,0-1.45-.88c-3.92,0-7.85-.09-11.77-.13-1.84,0-3.68,0-5.52,0M187.9,138c-6,0-11.87,0-17.78,0a1.24,1.24,0,0,0-.82.62c-1.4,2.38-2.76,4.78-4.13,7.18-.12.22-.21.45-.36.79l6.64-1.64c2.6-.64,5.36-1,7.78-2a89.75,89.75,0,0,0,8.67-5M115,166.41c-.93-4.19-1.8-8.17-2.72-12.13a1.15,1.15,0,0,0-.76-.64c-2.21-.53-4.42-1-6.64-1.49L99.55,151c1.58,2.24,3,4.27,4.43,6.28a13.33,13.33,0,0,0,2.27,3c2.77,2.12,5.69,4,8.74,6.18m44.21-15.28a2.1,2.1,0,0,0-.38,0c-3.88.85-7.77,1.69-11.64,2.58a1.18,1.18,0,0,0-.62.8c-.37,1.41-.66,2.85-1,4.28-.55,2.49-1.11,5-1.7,7.67,2.59-1.82,5.06-3.47,7.43-5.25a14.3,14.3,0,0,0,2.77-2.78c1.76-2.34,3.38-4.78,5.12-7.26M50.76,136.9l23.91,4.94a18.72,18.72,0,0,1-1.76-1.39A10.14,10.14,0,0,0,65,137.53c-4.81.08-9.63-.4-14.24-.63m133.44,4.94L207.8,137l-17.07.72a2.94,2.94,0,0,0-1.42.22c-1.68,1.22-3.3,2.53-5.11,3.94m-54.43,73.51,5-24c-1.26,1.61-2.46,3.07-3.56,4.6a3.26,3.26,0,0,0-.57,1.69c-.17,3.15-.24,6.29-.39,9.44-.12,2.75-.29,5.5-.45,8.32m-5.64-24.06c1.67,8.1,3.3,16,4.94,23.93a2,2,0,0,0,0-.37q-.42-8.91-.84-17.81a1.42,1.42,0,0,0-.2-.68c-1.27-1.66-2.57-3.31-3.94-5.07m24.49-24.86-.13-.12c-1.63,1-3.27,2-4.9,3a1.29,1.29,0,0,0-.55.59c-.65,2.59-1.27,5.19-1.89,7.78l.13,0Zm-38.1,0-.17.18,7.24,11.18c-.49-2.61-1.1-5.18-1.73-7.74a.7.7,0,0,0-.25-.43q-2.53-1.61-5.09-3.19m-11-10.69a1.59,1.59,0,0,0,.13-.13c-1-1.63-2-3.28-3.06-4.89a1.76,1.76,0,0,0-1-.63c-2.16-.58-4.33-1.1-6.5-1.63a4.16,4.16,0,0,0-.8,0l11.22,7.28m71-7.28a2,2,0,0,0-.43-.06c-2.37.57-4.75,1.13-7.12,1.71a.88.88,0,0,0-.53.3c-1.11,1.73-2.19,3.49-3.28,5.24l.14.1,11.22-7.29"/><path class="cls-1" d="M197.59,32.12a111.66,111.66,0,0,1,29.35,29.44,110.39,110.39,0,0,1,19.47,60c1.29,45.6-24.15,79.64-48.67,95.83,27.57-24.55,42.66-55.25,42.65-92.54s-15.1-68-42.8-92.72"/><path class="cls-1" d="M61.13,32.42C33.68,56.84,18.51,87.51,18.54,125S33.78,193,61.35,217.45c-27.79-18.4-49.64-53.26-48.91-94.52.78-43.55,25.72-75.47,48.69-90.51"/><path class="cls-1" d="M153.77,122v9.78h-1.63c0-.37,0-.74,0-1.11,0-3.43,0-6.85,0-10.28,0-1.64,0-1.64,1.74-2.28l5.6,10c.06-.55.11-.79.12-1,0-2.27.07-4.55,0-6.82,0-1.2.43-1.74,1.67-1.92,0,.37,0,.73,0,1.09,0,3.71,0,7.42,0,11.13,0,.4-.21,1.05-.47,1.14a1.19,1.19,0,0,1-1.64-.59c-1.47-2.78-3-5.5-4.58-8.24l-.51-.9-.25,0"/><path class="cls-1" d="M181.29,131.29H179.5V118.86c2.44,0,4.87,0,7.29,0,.83,0,1.87,1.39,1.89,2.22,0,.38,0,.77,0,1.15.05,1,.15,2.08-1.48,2.57,1.83.71,1.46,2,1.47,3.2,0,1,0,2,0,3.1h-1.78v-5.21h-5.62Zm5.52-10.65h-5.47V124h5.47Z"/><path class="cls-1" d="M200.17,130.94h-1.85v-4.22H192.8v4.33l-1.85.09V128.8c0-2.52,0-5,0-7.56a2.76,2.76,0,0,1,2.27-2.29c1.55,0,3.09,0,4.63,0,.71,0,2.3,1.33,2.3,2,0,3.29,0,6.57,0,10m-7.33-6.13h5.4v-4h-5.4Z"/><path class="cls-1" d="M177.24,118.52c-.8,1.42-1.74,2.1-3.24,1.91a32.37,32.37,0,0,0-3.95,0v9.2h5.29V126h-3.69c1-1.87,1.85-2.15,5.61-1.77,0,1.76,0,3.53,0,5.3,0,.62-1.48,1.87-2.14,1.89-1.57.07-3.14.12-4.71.13a3.07,3.07,0,0,1-2.22-2.31q0-4.22,0-8.41a3.47,3.47,0,0,1,2.19-2.27c2.29,0,4.59,0,6.88,0"/><path class="cls-1" d="M142.16,118.14h8.24a2.61,2.61,0,0,1-2.88,2l-.41,0c-3.25-.33-3.28-.28-3.23,2.93,0,.68.2.92.9.9,1.6,0,3.2,0,4.92,0-.77,1.3-1.55,2.23-3.16,2a15.64,15.64,0,0,0-2.57,0v4.09h6.37a2.54,2.54,0,0,1-2.58,2h-5.6Z"/><path class="cls-1" d="M140.5,120h-7.32v10.11h7.54c-.88,1.09-1.36,2.32-3,2.09a10.33,10.33,0,0,0-3,0c-1.55.28-2.41-.57-3.18-1.66a1.75,1.75,0,0,1-.24-1c0-3,0-6,0-9a3,3,0,0,1,2.67-2.64l3.25,0c2.09,0,2.09,0,3.35,2"/><path class="cls-1" d="M92.26,126.72l2.34-8.45a1.86,1.86,0,0,1,1.31,1.92c-.06,3.43,0,6.87,0,10.3v1.07h-1v-9.21l-.2,0c-.58,2.14-1.2,4.26-1.71,6.42-.19.78-.49,1.1-1.41.81-.59-2.27-1.21-4.64-1.82-7l-.17,0v8.87l-1,.11c0-.45,0-.82,0-1.19,0-3.23,0-6.45,0-9.67a2.13,2.13,0,0,1,1.36-2.33l2.25,8.38.21,0"/><path class="cls-1" d="M120.47,132.17c.2-.43.29-.59.34-.75a1.73,1.73,0,0,1,2.2-1.33,16.89,16.89,0,0,0,2.67,0v-4.27h-2.24c-1.34,0-2.16-.43-2.23-1.72-.1-1.87-.6-3.86.62-5.59a1.52,1.52,0,0,1,1-.62c1.53-.06,3.07,0,4.61,0-.35,1.74-.71,2-2.37,2h-2.59v3.88h1.78c1.75,0,2.26.16,2.5,1.86.28,2,.65,4.11-.6,6-.14.2-.38.47-.58.48-1.63,0-3.25,0-5.06,0"/><path class="cls-1" d="M71.78,118.73c1.47,0,2.87,0,4.25,0,.58,0,1.5,1.32,1.51,2.15,0,2.77,0,5.53,0,8.29a2.18,2.18,0,0,1-2.26,2.11c-.66,0-1.33,0-2,0-.48,0-1-.09-1.5-.14Zm4.51,1.9H73v8.79h3.28Z"/><path class="cls-1" d="M119.65,125.12c0,1.44,0,2.87,0,4.31a2.8,2.8,0,0,1-.11.92c-.55,1.54-.78,1.68-2.42,1.68-.38,0-.76,0-1.15,0a2.23,2.23,0,0,1-2.2-2.31q0-4.67,0-9.35a2.21,2.21,0,0,1,2.29-2.28c.35,0,.69,0,1,0,1.7,0,2.54.82,2.55,2.57,0,1.51,0,3,0,4.52M118.36,130V120h-2.48c-.72,0-1,.24-1,1,.06,2.7,0,5.39,0,8.08,0,.31.05.61.08.94Z"/><path class="cls-1" d="M202.6,119.28h8.63c-.89,1.16-1.71,1.81-3.11,1.6a26,26,0,0,0-3.65,0v3.3h5.93c-.91.89-1.37,1.83-2.65,1.72-1.07-.09-2.16,0-3.35,0v5h-1.8Z"/><path class="cls-1" d="M103.66,131.83V118.14a20.13,20.13,0,0,1,4.33.1,2.73,2.73,0,0,1,1.36,2.09c.15,3.14.1,6.29,0,9.44a2,2,0,0,1-2.46,2.07c-1.07-.05-2.14,0-3.27,0m4.58-11.6h-3.37v9.63h3.37Z"/><path class="cls-1" d="M52.83,124.82c1.1,2,.33,4,.62,6-1,.25-1.31,0-1.26-.93.06-1.29,0-2.58,0-3.95H48.75v4.79l-1.16.08v-11.6a34.14,34.14,0,0,1,4.64.08c.47.06,1,1,1.13,1.68a8.55,8.55,0,0,1,0,2.72,3.85,3.85,0,0,1-.56,1.17m-.67-3.9H48.8V124h3.36Z"/><path class="cls-1" d="M61.24,119a21.49,21.49,0,0,1,4.34.09A2.55,2.55,0,0,1,67,121c.16,2.68.1,5.38,0,8.07a2.2,2.2,0,0,1-2.31,2.08c-1.15,0-2.29,0-3.47,0Zm1.08,10.31h3.42v-8.58c-1,0-1.9,0-2.8,0-.22,0-.59.32-.59.5,0,2.65,0,5.3,0,8.06"/><path class="cls-1" d="M98.62,120.28v3.64h3.77c-.6.78-.93,1.58-1.52,1.86a5.92,5.92,0,0,1-2.3.07v3.93h4c-.38,1.74-.63,2-2.17,2-.84,0-1.68,0-2.52,0-.1,0-.2,0-.39-.08V118.39h5c-.25,1.5-.59,1.79-2.09,1.8-.58,0-1.16.06-1.78.09"/><path class="cls-1" d="M79,118.7h5.07c-.32,2.5-2.41,1.55-3.89,1.82v3.4h3.42c-.27,2.24-1.93,1.93-3.42,1.91v3.74h3.9c-.41,1.68-.71,1.89-2.2,1.83-.94,0-1.88,0-2.88,0Z"/><path class="cls-1" d="M56,129.25h4.06c-.38,1.49-.6,1.67-2,1.66H55V119.17h5.13c-.49,2.37-2.5,1.39-4,1.71V124h3.56c-.68,1.74-.68,1.79-2.44,1.72-1,0-1.31.26-1.21,1.23a22.21,22.21,0,0,1,0,2.32"/><rect class="cls-1" x="163.88" y="118.5" width="1.74" height="13.05"/><path class="cls-1" d="M112.06,131.91h-1V118.18l1-.1Z"/></svg>