<svg xmlns="http://www.w3.org/2000/svg" xmlns:xlink="http://www.w3.org/1999/xlink" viewBox="0 0 493.31 394.81"><defs><style>.cls-1{fill:url(#Degradado_sin_nombre_3);}.cls-2{fill:none;}.cls-3{isolation:isolate;}.cls-4{clip-path:url(#clip-path);}.cls-5{mix-blend-mode:overlay;}.cls-6{clip-path:url(#clip-path-2);}.cls-7{clip-path:url(#clip-path-3);}.cls-8{mask:url(#mask);}.cls-9{fill:url(#Degradado_sin_nombre_2);}.cls-10{fill:#fff;}</style><linearGradient id="Degradado_sin_nombre_3" x1="-782.22" y1="969" x2="-781.22" y2="969" gradientTransform="matrix(0, -740.08, -740.08, 0, 716682.91, -577769.81)" gradientUnits="userSpaceOnUse"><stop offset="0" stop-color="gray"/><stop offset="0.17" stop-color="#767676"/><stop offset="0.45" stop-color="#5d5d5d"/><stop offset="0.81" stop-color="#333"/><stop offset="1" stop-color="#1a1a1a"/></linearGradient><clipPath id="clip-path"><rect class="cls-2" x="-782.22" y="544.66" width="640.35" height="424.35"/></clipPath><clipPath id="clip-path-2"><rect class="cls-2" x="-782.22" y="542.64" width="640" height="425.53"/></clipPath><clipPath id="clip-path-3"><path class="cls-2" d="M-315,720.42c-31.36-136.23-136-177.78-136-177.78h-331.2l0,14.8.14-13.25h259.25c71.12,27,96,67.56,104.57,96,3.44,11.46-10.78,20.81-22.21,14.6-48-26.11-121.17-32.67-201.63-19.94-91.75,14.52-135.63-39.25-140.09-45.08l.11,102.52s18.89,44.62,147,25.56,210.08-4.36,252.32,110.39,73.6,121,100.8,139.91h139.68V833.48S-283.66,856.66-315,720.42"/></clipPath><mask id="mask" x="-992.39" y="226.53" width="1060.34" height="1057.73" maskUnits="userSpaceOnUse"><rect class="cls-1" x="-843.71" y="385.75" width="762.97" height="739.31" transform="translate(-601.72 -119.14) rotate(-40.53)"/></mask><linearGradient id="Degradado_sin_nombre_2" x1="-782.22" y1="969" x2="-781.22" y2="969" gradientTransform="matrix(0, -740.08, -740.08, 0, 716682.91, -577769.81)" gradientUnits="userSpaceOnUse"><stop offset="0" stop-color="#232c58"/><stop offset="1" stop-color="#232c58"/></linearGradient></defs><title>logoreddemedios</title><g class="cls-3"><g id="Capa_1" data-name="Capa 1"><g class="cls-4"><g class="cls-5"><g class="cls-6"><g class="cls-7"><g class="cls-8"><rect class="cls-9" x="-843.71" y="385.75" width="762.97" height="739.31" transform="translate(-601.72 -119.14) rotate(-40.53)"/></g></g></g></g></g><path class="cls-10" d="M73.79,172.75c6.62-2.12,12.65-4.2,18.77-6,16.54-4.78,33.12-9.4,49.67-14.13a11.09,11.09,0,0,0,3.17-1.44q23-15.71,46-31.51a8.78,8.78,0,0,0,2.13-2.17q15.81-23,31.54-46a10.48,10.48,0,0,0,1.36-3Q236.26,35.11,246,1.63c.12-.41.33-.81.67-1.63,1.74,5.28,3.5,10.14,4.93,15.11,5.13,17.81,10.13,35.66,15.21,53.48a10.54,10.54,0,0,0,1.39,3q15.66,22.94,31.4,45.81a9.91,9.91,0,0,0,2.46,2.46c15.18,10.46,30.36,21,45.67,31.23,2.23,1.5,5.13,2.06,7.78,2.84q30.89,9.15,61.8,18.21a2.89,2.89,0,0,1,1.54,1c-7.14.45-14.26,1-21.4,1.31-11.2.49-22.4,1-33.62,1.17-14.61.27-29.23.6-43.84.32-20.13-.39-40.26-1.29-60.38-2-4.56-.17-9.12-.86-13.68-.86-4.26,0-8.52.67-12.79.91-8.61.47-17.23,1-25.86,1.22-16.37.41-32.76.86-49.14.85-16.6,0-33.21-.41-49.8-1-10.9-.36-21.79-1.27-32.68-1.94-.42,0-.84-.14-1.89-.33m172.51-.25c-.76-13.95-1.5-27.75-2.25-41.53a1.61,1.61,0,0,0-.5-.05c-9.48,2.93-19,5.84-28.42,8.86a3.31,3.31,0,0,0-1.68,2c-1.81,5.67-3.46,11.4-5.22,17.09-1.16,3.77-2.42,7.51-3.68,11.42l41.75,2.23m42.2-2.23a2.94,2.94,0,0,0,0-.74c-2.93-9.49-5.84-19-8.86-28.45a2.79,2.79,0,0,0-1.71-1.37c-3.28-1.07-6.61-2-9.91-3l-18.77-5.85c-.75,13.93-1.5,27.73-2.25,41.67l41.51-2.23m-73.19-34.9,28.47-5.4V89.21c-1.15.83-1.8,1.28-2.42,1.76-4.22,3.23-8.27,6.71-12.69,9.64a14.54,14.54,0,0,0-6.59,9.55c-1.94,8.37-4.43,16.61-6.77,25.21m33.85-5.46,28.71,5.44a7.85,7.85,0,0,0-.11-1.06c-2.56-9.29-5.07-18.59-7.74-27.83a7.53,7.53,0,0,0-2.38-3.44c-2.84-2.35-5.88-4.46-8.81-6.69s-5.78-4.44-9-6.91c-.23,13.71-.46,27-.69,40.49m40.36,40H330a11.79,11.79,0,0,0-.63-1.2c-4.5-5.93-9-11.89-13.56-17.76a5,5,0,0,0-2.57-1.47c-5.59-1.57-11.21-3-16.82-4.56-4.06-1.11-8.11-2.28-12.34-3.47,1.86,9.75,3.66,19.2,5.42,28.46m-80.35-28.38c-10.07,2.73-19.93,5.37-29.77,8.11a4.6,4.6,0,0,0-2.19,1.65c-2.86,3.67-5.6,7.42-8.41,11.12-1.77,2.32-3.58,4.61-5.82,7.49h40.79q2.63-13.83,5.4-28.37m16.16-43.1C231.22,95.09,236.56,92,242,89a2.92,2.92,0,0,0,1.68-3c0-8.47.08-17,.13-25.44,0-3.71,0-7.43,0-11.54-2.41,4.17-4.51,8.2-7,12A39.3,39.3,0,0,0,231,75.42c-.46,2.45-1.14,4.86-1.74,7.29-1.24,5.05-2.49,10.1-3.89,15.73M123,170h8.66c7.38,0,14.76-.05,22.13-.11,2.65,0,5.79.67,7.8-.51s2.86-4.28,4.19-6.56c2.09-3.6,4.17-7.23,6.4-11.09a10.15,10.15,0,0,0-1.36.16q-9.84,2.46-19.66,4.94c-3.42.86-7.09,1.22-10.17,2.77-6.16,3.11-12,6.88-18,10.4m198.06-18.43c.52,1,.81,1.53,1.13,2.09,2.71,4.72,5.46,9.42,8.08,14.2a3.23,3.23,0,0,0,3.26,1.94c10.46.07,20.93.26,31.39.4,1.77,0,3.55,0,5.73,0-6.38-3.73-12.34-7.23-18.33-10.69a7.88,7.88,0,0,0-2.06-.73l-17.55-4.32-11.65-2.89M267.77,98.36c-.14-.93-.18-1.49-.31-2-.79-3.21-1.75-6.39-2.39-9.63-2.34-11.76-5.71-23.09-12.85-33a39,39,0,0,1-2-3.46,2.94,2.94,0,0,0-.41-.57c0,10.42.32,21.17-.14,31.87-.22,5.05,1.17,7.93,5.84,9.92,4.16,1.77,7.94,4.42,12.22,6.87m41.87,44.07c-.7-1-1.18-1.75-1.67-2.44-3.22-4.59-6.34-9.23-9.71-13.71a25.64,25.64,0,0,0-5.08-5.06c-4.71-3.53-9.61-6.83-14.43-10.21-.43-.3-.89-.54-1.6-1,1.92,8.76,3.75,17.16,5.65,25.53a2,2,0,0,0,1.3,1.13c8.37,1.92,16.74,3.77,25.54,5.74M216.15,110.1a6.28,6.28,0,0,0-1,.42q-8.7,6.11-17.35,12.24a4.62,4.62,0,0,0-1.12,1q-6.36,9-12.67,18.11c0,.07.05.23.1.4,6.54-1.45,13-3.26,19.6-4.23,4.92-.72,7.4-2.51,8.08-7.77.87-6.75,2.8-13.35,4.33-20.21m145.94,51.56c3.4,2.66,6.59,5.23,9.88,7.67a5.34,5.34,0,0,0,2.76,1c9.19.48,18.38.87,27.58,1.3,3.2.15,6.41.33,9.62.5V172l-49.83-10.33M247.36,6.78c0,.5-.07.79-.06,1.08q.88,18.54,1.78,37.08a2.85,2.85,0,0,0,.26,1.49c2.72,3.6,5.51,7.16,8.5,11-3.54-17.12-7-33.81-10.48-50.67M235.45,57.44c2.74-3.51,5.27-6.66,7.67-9.91a5.72,5.72,0,0,0,1-3c.49-9.72.89-19.44,1.32-29.15.13-2.81.31-5.61.49-8.83-3.54,17.12-7,33.8-10.52,50.85M131.21,161.66,81.38,172c2.27,0,4.53-.21,6.8-.31,10.3-.46,20.61-.89,30.91-1.36a3.14,3.14,0,0,0,1.63-.48c3.44-2.63,6.84-5.32,10.49-8.18m75-51.85a3.58,3.58,0,0,1,.26.29c3.66-2.26,7.33-4.49,11-6.81.4-.26.56-1,.7-1.53.91-3.64,1.78-7.28,2.66-10.92.33-1.36.66-2.71,1-4.07-5.19,7.12-9.93,14.37-14.68,21.63-.3.46-.58.94-.87,1.41M272,86.66l-.53.1c.63,2.55,1.59,5.07,1.82,7.66.56,6.43,3.57,10.87,9.58,13.31a29.67,29.67,0,0,1,3.94,2.32l.17-.31L272,86.66M159.91,147.81c0,.12.09.23.13.34,5.26-1.3,10.52-2.58,15.77-3.9a2.32,2.32,0,0,0,1.3-.67c2.3-3.63,4.54-7.3,6.8-11l-.25-.21-23.75,15.4m173.46.36.12-.28-23.85-15.47c2,3.81,4.15,7.37,6.38,10.9a2.12,2.12,0,0,0,1.16.86c5.39,1.36,10.79,2.67,16.19,4"/><path class="cls-10" d="M418.93,222.3c-4.36,1.42-8.68,3-13.09,4.24-18.23,5.25-36.49,10.4-54.73,15.63a12,12,0,0,0-3.34,1.6Q324.93,259.36,302.12,275a9.91,9.91,0,0,0-2.45,2.47c-10.34,15-20.68,30-30.86,45.12a25.59,25.59,0,0,0-2.86,7.06q-9.42,31.84-18.72,63.71a14.87,14.87,0,0,1-.66,1.44c-1.19-3.6-2.34-6.79-3.28-10q-8.44-29.14-16.82-58.31a11.22,11.22,0,0,0-1.44-3.17q-15.6-22.85-31.3-45.62a11.27,11.27,0,0,0-2.76-2.75C176,264.63,161.11,254.29,146,244.22c-2.59-1.73-5.9-2.49-9-3.41-20.58-6.12-41.19-12.15-61.78-18.23a14.11,14.11,0,0,1-1.44-.65c4.64-.36,8.7-.8,12.76-1,13.56-.58,27.12-1.2,40.69-1.55,13.13-.33,26.27-.55,39.41-.43,17.19.16,34.38.59,51.56,1.13,10.24.31,20.47,1.59,30.7,1.49,12.37-.13,24.73-1.39,37.11-1.91,9.66-.41,19.33-.55,29-.59,15.94-.07,31.89-.22,47.83.14,15.63.36,31.24,1.32,46.86,2,3,.14,6,.36,9.05.55l.12.48M249.24,264a6.32,6.32,0,0,0,.8-.13c9.4-2.92,18.81-5.82,28.18-8.83a3.26,3.26,0,0,0,1.65-1.95c1.93-6.1,3.72-12.23,5.6-18.35,1-3.4,2.17-6.77,3.25-10.13L247,222.38q1.13,20.73,2.26,41.64m-44.56-39.38a5,5,0,0,0,.09.83c2.91,9.34,5.8,18.69,8.82,28a3.5,3.5,0,0,0,2,1.82c5.47,1.75,11,3.33,16.48,5,4,1.23,7.94,2.53,11.93,3.8.76-14.1,1.51-28,2.25-41.72-13.94.75-27.76,1.49-41.62,2.25m10.83,34.92a2.06,2.06,0,0,0-.09.58c2.66,9.78,5.31,19.57,8,29.34a4.44,4.44,0,0,0,1.58,2c4.62,3.56,9.28,7.05,13.92,10.56,1.43,1.09,2.85,2.21,4.83,3.74V264.93l-28.28-5.37m62.49-.05L249.16,265l.69,40.05c.4,0,.49,0,.54,0,3.93-3,7.64-6.35,11.84-8.9,5.6-3.41,8.55-8,9.82-14.44,1.47-7.4,3.88-14.61,5.95-22.18m6.14-6.23c.68-.13,1.17-.19,1.65-.31,7-1.95,13.95-4.33,21.07-5.72,6-1.17,10.21-3.9,13.43-9.05,2.78-4.47,6.33-8.45,9.74-12.91l-40.44-.74c-1.8,9.49-3.59,18.95-5.45,28.73m-120.58-28c.07.39.05.56.13.66,4.59,6,9.18,12.09,13.83,18.09a3.94,3.94,0,0,0,2,1.21c6.43,1.81,12.89,3.55,19.34,5.31l10.35,2.85c-1.88-9.83-3.68-19.33-5.49-28.83l-40.13.71M243.86,346c0-2,0-3.43,0-4.82-.08-10.84-.19-21.69-.21-32.53a2.73,2.73,0,0,0-1.69-2.73c-4.12-2.28-8.2-4.64-12.29-7l-4.25-2.46c.2,1,.28,1.57.42,2.13,1.09,4.42,2.29,8.82,3.27,13.26,2,9.08,4.25,18,9.83,25.73,1.79,2.47,3.11,5.27,4.92,8.4m6-.79s.38-.56.69-1.11c2.93-5,5.88-10.05,8.74-15.12a16.6,16.6,0,0,0,1.68-4c2.24-8.83,4.41-17.69,6.58-26.54a11.9,11.9,0,0,0,.15-1.75c-5.75,3.26-11.27,6.36-16.73,9.55a2.56,2.56,0,0,0-1.06,1.89c-.06,12.51-.05,25-.05,37.12M123.45,224.83c0,.11,0,.23-.07.35,5,2.89,9.9,5.87,14.94,8.63a41.89,41.89,0,0,0,7.07,2.91c2.3.76,4.71,1.16,7.07,1.74l19.73,4.88c-.5-1-.84-1.67-1.24-2.35-2.67-4.67-5.41-9.3-8-14a3,3,0,0,0-3.06-1.85c-8.27,0-16.54-.2-24.8-.29-3.88,0-7.76,0-11.64,0m246.43.34c-12.56,0-25,0-37.49.06a2.63,2.63,0,0,0-1.72,1.3c-2.95,5-5.82,10.08-8.7,15.14-.26.45-.45,1-.77,1.65l14-3.45c5.49-1.36,11.3-2,16.41-4.25,6.4-2.8,12.22-6.92,18.27-10.45M216.19,285c-1.95-8.82-3.78-17.21-5.72-25.57a2.45,2.45,0,0,0-1.62-1.35c-4.64-1.11-9.31-2.1-14-3.13l-11.22-2.49c3.32,4.72,6.3,9,9.33,13.24,1.54,2.15,2.79,4.72,4.8,6.27,5.83,4.48,12,8.53,18.41,13m93.19-32.2a4.08,4.08,0,0,0-.8-.09c-8.18,1.79-16.37,3.56-24.53,5.44-.55.13-1.15,1-1.32,1.67-.76,3-1.38,6-2.05,9-1.17,5.26-2.34,10.52-3.59,16.17,5.47-3.84,10.67-7.32,15.66-11.07a30.24,30.24,0,0,0,5.84-5.85c3.71-4.93,7.13-10.07,10.79-15.3m-228.58-30,50.41,10.41a40.78,40.78,0,0,1-3.71-2.91c-4.62-4.65-10-6.28-16.68-6.17-10.14.16-20.3-.84-30-1.33m281.29,10.41,49.73-10.28c-11.29.48-23.63,1-36,1.53-1,.05-2.25-.07-3,.45-3.55,2.58-7,5.34-10.77,8.3m-114.74,155,10.47-50.69c-2.65,3.4-5.18,6.47-7.5,9.68a7,7,0,0,0-1.2,3.58c-.35,6.62-.51,13.26-.81,19.88-.26,5.81-.63,11.6-1,17.55m-11.89-50.71c3.52,17.07,7,33.69,10.42,50.43a4.17,4.17,0,0,0,.08-.77q-.87-18.78-1.78-37.55a2.67,2.67,0,0,0-.42-1.43c-2.68-3.5-5.41-7-8.3-10.68m51.62-52.41-.27-.26c-3.44,2.13-6.9,4.25-10.32,6.41a2.57,2.57,0,0,0-1.17,1.23c-1.37,5.46-2.67,10.94-4,16.41l.26.07Zm-80.3-.08-.36.38,15.26,23.57c-1-5.51-2.33-10.91-3.64-16.31a1.57,1.57,0,0,0-.54-.91c-3.56-2.27-7.14-4.5-10.72-6.73m-23.19-22.54.27-.26c-2.14-3.45-4.23-6.92-6.44-10.32a3.81,3.81,0,0,0-2.1-1.33c-4.55-1.21-9.13-2.31-13.7-3.43a10,10,0,0,0-1.69,0l23.66,15.35M333.34,247.1a4,4,0,0,0-.92-.12q-7.5,1.78-15,3.61a1.92,1.92,0,0,0-1.13.61c-2.33,3.67-4.61,7.37-6.9,11.05l.3.22,23.65-15.37"/><path class="cls-10" d="M390.31,2A235.24,235.24,0,0,1,452.16,64c25.94,38.16,39.74,80.36,41,126.45,2.72,96.1-50.91,167.87-102.59,202,58.12-51.75,89.91-116.46,89.9-195.07S448.69,54.05,390.31,2"/><path class="cls-10" d="M102.68,2.58c-57.88,51.48-89.86,116.13-89.79,195s32.13,143.48,90.23,195C44.56,353.82-1.51,280.35,0,193.38c1.64-91.81,54.2-159.1,102.64-190.8"/><path class="cls-10" d="M297.94,191.35V212H294.5c0-.78-.11-1.55-.11-2.33q0-10.84,0-21.68c0-3.45,0-3.45,3.66-4.81l11.8,21.06c.13-1.15.24-1.67.24-2.19,0-4.79.16-9.59,0-14.38-.11-2.53.9-3.65,3.52-4,0,.79.11,1.54.11,2.3,0,7.81,0,15.63,0,23.46,0,.83-.42,2.2-1,2.39a2.49,2.49,0,0,1-3.46-1.24c-3.09-5.85-6.41-11.59-9.64-17.37l-1.09-1.88-.52.1"/><path class="cls-10" d="M355.94,211h-3.76v-26.2c5.13,0,10.25-.09,15.37.05,1.75.06,3.93,2.93,4,4.68,0,.82,0,1.63,0,2.44.1,2.17.31,4.37-3.12,5.4,3.84,1.5,3.07,4.27,3.1,6.76,0,2.12,0,4.24,0,6.52H367.8v-11H355.94Zm11.64-22.44H356.05v7h11.53Z"/><path class="cls-10" d="M395.74,210.25h-3.89v-8.9H380.21v9.15l-3.9.18v-4.94c0-5.31,0-10.63,0-15.94,0-2.06,2.72-4.81,4.79-4.82,3.25,0,6.5,0,9.75.07,1.51,0,4.85,2.79,4.86,4.22.07,6.92,0,13.84,0,21m-15.45-12.92h11.38V188.8H380.29Z"/><path class="cls-10" d="M347.41,184.08c-1.69,3-3.68,4.42-6.83,4a67.72,67.72,0,0,0-8.33-.07v19.39h11.16v-7.66h-7.78c2-3.93,3.89-4.51,11.82-3.72,0,3.7.06,7.44,0,11.17,0,1.3-3.12,3.93-4.5,4-3.31.14-6.63.25-9.94.27-1.76,0-4.67-3-4.68-4.88q-.06-8.86,0-17.71c0-1.52,3.1-4.76,4.61-4.78,4.84-.07,9.68,0,14.51,0"/><path class="cls-10" d="M273.46,183.28h17.37c-1.24,3.17-3,4.38-6.06,4.2-.29,0-.58-.07-.88-.1-6.84-.69-6.91-.58-6.79,6.18,0,1.43.42,1.94,1.89,1.9,3.37-.08,6.74,0,10.36,0-1.62,2.74-3.27,4.7-6.66,4.14a34.66,34.66,0,0,0-5.41-.05v8.62h13.44c-.89,2.82-2.73,4.24-5.45,4.24H273.46Z"/><path class="cls-10" d="M270,187.1H254.53v21.3h15.91c-1.87,2.3-2.87,4.88-6.38,4.41a21.06,21.06,0,0,0-6.39.09c-3.28.58-5.1-1.21-6.71-3.5a3.75,3.75,0,0,1-.51-2.05q0-9.53,0-19c0-2.65,3-5.58,5.62-5.56l6.86.08c4.4,0,4.4,0,7.06,4.27"/><path class="cls-10" d="M168.29,201.36c1.63-5.87,3.25-11.75,4.93-17.81,1.88.88,2.8,1.91,2.77,4-.14,7.24-.06,14.48-.06,21.72v2.26h-2.12V192.15l-.44-.06c-1.21,4.5-2.51,9-3.59,13.52-.39,1.66-1,2.33-3,1.72-1.26-4.8-2.55-9.79-3.85-14.78l-.35.06v18.7l-2.21.23c0-.94-.11-1.73-.12-2.51,0-6.8.09-13.6-.06-20.39,0-2.26.49-3.86,2.88-4.91l4.74,17.68.44,0"/><path class="cls-10" d="M227.74,212.85c.43-.92.62-1.24.73-1.58.74-2.27,2.13-3.22,4.63-2.8a35.15,35.15,0,0,0,5.64.06v-9H234c-2.81,0-4.54-.91-4.69-3.63-.21-3.94-1.28-8.13,1.31-11.78a3.16,3.16,0,0,1,2-1.31c3.23-.13,6.48-.06,9.73-.06-.75,3.66-1.5,4.3-5,4.3h-5.47v8.19h3.76c3.69,0,4.77.33,5.27,3.91.6,4.19,1.37,8.66-1.27,12.64-.29.43-.79,1-1.21,1-3.43.08-6.87,0-10.68,0"/><path class="cls-10" d="M125.12,184.53c3.1,0,6,0,9,0,1.21,0,3.16,2.77,3.17,4.53.05,5.82.08,11.65,0,17.47a4.58,4.58,0,0,1-4.76,4.43c-1.4,0-2.81,0-4.21,0-1,0-2-.2-3.15-.31Zm9.5,4h-6.91v18.52h6.91Z"/><path class="cls-10" d="M226,198c0,3,0,6.06,0,9.08a6,6,0,0,1-.22,2c-1.17,3.23-1.65,3.54-5.09,3.53-.81,0-1.63,0-2.44,0a4.66,4.66,0,0,1-4.63-4.85q-.09-9.85,0-19.71c0-2.88,1.91-4.65,4.82-4.8.73,0,1.47-.12,2.2-.12,3.58,0,5.35,1.73,5.37,5.43,0,3.17,0,6.35,0,9.52m-2.72,10.37v-21.2c-1.86,0-3.55,0-5.23,0-1.53,0-2.18.5-2.15,2.21.12,5.67,0,11.35.05,17,0,.64.1,1.28.16,2Z"/><path class="cls-10" d="M400.87,185.68h18.18c-1.88,2.45-3.6,3.81-6.55,3.37a55.92,55.92,0,0,0-7.68-.07v7H417.3c-1.92,1.88-2.87,3.87-5.57,3.64-2.27-.19-4.55,0-7.08,0v10.55h-3.78Z"/><path class="cls-10" d="M192.32,212.14V183.28c3.05,0,6.21-.44,9.12.21,1.27.29,2.78,2.82,2.86,4.39.31,6.62.22,13.27.09,19.91-.06,3-2.13,4.53-5.18,4.37-2.25-.12-4.52,0-6.89,0M202,187.69h-7.1V208H202Z"/><path class="cls-10" d="M85.16,197.35c2.33,4.27.71,8.51,1.31,12.58-2,.52-2.75,0-2.65-2,.13-2.71,0-5.44,0-8.33H76.58v10.09l-2.45.18V185.44a70.83,70.83,0,0,1,9.78.17c1,.14,2.08,2.21,2.39,3.56a18,18,0,0,1,0,5.72,7.69,7.69,0,0,1-1.18,2.46m-1.4-8.22H76.67v6.57h7.09Z"/><path class="cls-10" d="M102.89,185c3.18,0,6.27-.41,9.15.19,1.25.27,2.84,2.58,2.93,4.05.34,5.65.21,11.34.11,17a4.63,4.63,0,0,1-4.88,4.39c-2.41-.05-4.82,0-7.31,0Zm2.28,21.75h7.21V188.63c-2.09,0-4-.07-5.91.05-.45,0-1.24.67-1.24,1-.08,5.59-.06,11.18-.06,17"/><path class="cls-10" d="M181.69,187.78v7.67h7.94c-1.26,1.64-2,3.33-3.19,3.93s-3,.14-4.85.14v8.3H190c-.79,3.66-1.33,4.13-4.57,4.12-1.77,0-3.54-.05-5.31-.09a6.68,6.68,0,0,1-.83-.16V183.8h10.59c-.53,3.15-1.26,3.78-4.4,3.8-1.23,0-2.46.11-3.76.18"/><path class="cls-10" d="M140.28,184.46H151c-.68,5.26-5.09,3.27-8.21,3.84v7.15H150c-.56,4.73-4.06,4.07-7.2,4v7.91H151c-.87,3.52-1.51,4-4.65,3.84-2-.09-3.95,0-6.07,0Z"/><path class="cls-10" d="M91.86,206.69h8.56c-.82,3.15-1.28,3.52-4.25,3.51H89.65V185.44h10.81c-1,5-5.28,2.94-8.45,3.61v6.54h7.51c-1.42,3.65-1.43,3.78-5.13,3.62-2-.09-2.77.55-2.56,2.59.16,1.52,0,3.07,0,4.89"/><rect class="cls-10" x="319.26" y="184.03" width="3.67" height="27.51"/><path class="cls-10" d="M210,212.3h-2V183.36l2-.21Z"/></g></g></svg>