<svg id="Capa_1" data-name="Capa 1" xmlns="http://www.w3.org/2000/svg" viewBox="0 0 4751.42 1096.75"><defs><style>.cls-1,.cls-2{fill:#fff;}.cls-2{stroke:#fff;stroke-miterlimit:10;stroke-width:22.68px;}.cls-3{fill:#ea591c;}</style></defs><title>logo cenigraf</title><path class="cls-1" d="M3668.9,1085.18h8.63c-.89,1.16-1.71,1.81-3.11,1.6a26,26,0,0,0-3.65,0v3.3h5.93c-.91.89-1.37,1.83-2.65,1.73-1.07-.09-2.16,0-3.35,0v5h-1.8Z"/><path class="cls-1" d="M2082,202.1l17.4,4.73q-12.49,61-56.42,61-28.87,0-45.33-28.25t-16.44-69.47q0-42.57,17.17-68.39T2044.41,76q42.81,0,55,59.29l-18,4.32q-9.82-44-37.13-44-20.19,0-31.28,20.46t-11.09,57.47q0,33.9,11.37,54.36t30.1,20.47Q2072.52,248.3,2082,202.1Z"/><path class="cls-1" d="M2195.83,223.44l16.27,4.06a56.22,56.22,0,0,1-17.39,28.93,44.46,44.46,0,0,1-30.44,11.45q-23.08,0-37.35-19.67t-14.27-51.58q0-32.56,14.83-52.65t37.24-20.08q22.07,0,35.51,18.51T2214,197.78h-81.84q0,30.93,10.7,41.74t22.64,10.8Q2187,250.32,2195.83,223.44Zm-1-41.46a70.47,70.47,0,0,0-3.12-20.39,34.63,34.63,0,0,0-9.81-15.2,23.84,23.84,0,0,0-16.62-6.28q-13,0-22.13,11.35T2132.94,182Z"/><path class="cls-1" d="M2329.07,264.1h-16.39V176.44q0-18.9-6.8-26.6a21.23,21.23,0,0,0-16.51-7.7q-13.38,0-22.46,13t-9.09,34.17V264.1h-17.51V127.68h16.28v25.13q13.72-28.91,35.57-28.91a31.18,31.18,0,0,1,21.47,7.9,41.23,41.23,0,0,1,12.15,17.76q3.28,9.87,3.29,35.66Z"/><path class="cls-1" d="M2415.15,249.65v16.74a103.43,103.43,0,0,1-16.06,1.49q-32.67,0-32.67-41.37V144.3h-20V127.68h20l.78-34.3,16.28-1.89v36.19h25.2V144.3h-25.2V230q0,21.1,18.06,21.1A71.55,71.55,0,0,0,2415.15,249.65Z"/><path class="cls-1" d="M2451.83,264.1h-17.51V127.68h15.39v31.88q8.14-22.56,16.34-29.24t16.78-6.69a57.06,57.06,0,0,1,6.91.54v20.26h-3.57q-14.49,0-24.08,13.1T2451.83,192Z"/><path class="cls-1" d="M2545.83,267.88q-23.2,0-36.19-20.82t-13-51.64q0-32.58,14.61-52t36.35-19.47q23.31,0,36.74,20.48t13.43,51.17q0,31.9-14.49,52.12T2545.83,267.88Zm1.33-17.56q13.38,0,22.42-13.37t9-41.6q0-28.36-9.48-41.13t-22.19-12.76q-13.05,0-22.08,12.9t-9,40.86q0,29.58,9,42.34T2547.16,250.32Z"/><path class="cls-1" d="M2698.69,310.15h-17.5V127.68H2697v26.48q11.91-30.25,35.52-30.26,19.93,0,32.18,20.21T2777,195.28q0,33.41-12.6,53T2732,267.88q-21.18,0-33.34-24.45Zm0-134v38.49q1.68,15.48,10.82,25.57t19.06,10.09q11.49,0,20.35-12.15t8.87-42q0-25.8-8-39.77t-21.3-14q-10.47,0-18.78,9.86A51.26,51.26,0,0,0,2698.69,176.17Z"/><path class="cls-1" d="M2891.25,264.1H2874q-1-6.48-2-24.58-11.6,28.36-39.47,28.36-18.94,0-29.1-12.17t-10.14-29.22q0-20.7,14.49-34T2857,179.14c3.13,0,8.1.19,14.94.54q0-16.2-2.06-23.43a20,20,0,0,0-8.75-11.55q-6.69-4.32-17.62-4.32-26.66,0-31,24.58l-16.16-3.37q5.91-37.69,49.73-37.69,23.3,0,33.06,12.5t9.75,43.28v57.95A138.89,138.89,0,0,0,2891.25,264.1ZM2872,195.89q-10.7-.81-16.27-.81-20.74,0-32.23,8.26T2812,227.44a24.93,24.93,0,0,0,6.19,17.06q6.18,7,17.89,7,15.84,0,26-13.95t10.2-32.76Q2872.3,201,2872,195.89Z"/><path class="cls-1" d="M2941.43,264.1h-17.51V127.68h15.39v31.88q8.14-22.56,16.34-29.24t16.78-6.69a57.06,57.06,0,0,1,6.91.54v20.26h-3.57q-14.49,0-24.08,13.1T2941.43,192Z"/><path class="cls-1" d="M3087.27,264.1H3070q-1-6.48-2-24.58-11.59,28.36-39.47,28.36-19,0-29.1-12.17t-10.15-29.22q0-20.7,14.5-34T3053,179.14c3.12,0,8.1.19,14.94.54q0-16.2-2.06-23.43a20,20,0,0,0-8.75-11.55q-6.69-4.32-17.62-4.32-26.65,0-31,24.58l-16.16-3.37q5.9-37.69,49.72-37.69,23.31,0,33.06,12.5t9.76,43.28v57.95A138.89,138.89,0,0,0,3087.27,264.1ZM3068,195.89q-10.7-.81-16.28-.81-20.73,0-32.22,8.26T3008,227.44a25,25,0,0,0,6.18,17.06q6.2,7,17.9,7,15.83,0,26-13.95t10.21-32.76Q3068.32,201,3068,195.89Z"/><path class="cls-1" d="M3194.54,264.1H3177V79.74h17.51Z"/><path class="cls-1" d="M3317.63,264.1h-17.28q-1-6.48-2-24.58-11.6,28.36-39.47,28.36-19,0-29.1-12.17t-10.15-29.22q0-20.7,14.5-34t49.28-13.33c3.12,0,8.1.19,14.94.54q0-16.2-2.06-23.43a20,20,0,0,0-8.75-11.55q-6.69-4.32-17.62-4.32-26.65,0-31,24.58l-16.16-3.37q5.89-37.69,49.72-37.69,23.31,0,33.06,12.5t9.76,43.28v57.95A138.89,138.89,0,0,0,3317.63,264.1Zm-19.29-68.21q-10.7-.81-16.28-.81-20.73,0-32.22,8.26t-11.48,24.1a25,25,0,0,0,6.18,17.06q6.2,7,17.9,7,15.82,0,26-13.95t10.21-32.76Q3298.68,201,3298.34,195.89Z"/><path class="cls-1" d="M3425.45,79.74v23.63h-18.84V79.74Zm-.55,47.94V264.1h-17.51V127.68Z"/><path class="cls-1" d="M3548.55,264.1h-16.39V176.44q0-18.9-6.8-26.6a21.22,21.22,0,0,0-16.5-7.7q-13.38,0-22.47,13t-9.09,34.17V264.1h-17.5V127.68h16.27v25.13q13.72-28.91,35.57-28.91a31.18,31.18,0,0,1,21.47,7.9,41.23,41.23,0,0,1,12.15,17.76q3.28,9.87,3.29,35.66Z"/><path class="cls-1" d="M3671.53,79.74V264.1H3655.7V240.73q-11.84,27.15-35.62,27.15-19.76,0-32.49-20.08T3574.86,197q0-31.36,12.6-52.25t33.45-20.89q20.3,0,33.12,22.42V79.74ZM3654,180.36q0-18-9-28.77t-21.08-10.8q-13,0-21.46,14T3594,194.27q0,27.42,7.75,41.73T3623,250.32q12.27,0,21.63-12.42t9.37-29.18Z"/><path class="cls-1" d="M3795.19,264.1h-15.83V238q-12,29.85-35.85,29.85-17.27,0-27.11-13.79t-9.85-39.21v-87.2h17.5V214.8q0,20.26,7,27.89t15.33,7.63a23.08,23.08,0,0,0,15.33-5.81q6.86-5.81,11.43-16.54a59.16,59.16,0,0,0,4.57-23.43V127.68h17.51Z"/><path class="cls-1" d="M3815,228.71l16.72-4.19q5.58,25.8,35.24,25.8,10.92,0,18.5-5.93t7.59-16.73q0-16-19.3-20.37l-23.74-5.46q-14-3.24-22.19-12.69t-8.25-25q0-17.15,11.26-28.7t30.33-11.55q36.68,0,45.27,34.71l-16.06,4.19q-6.91-21.35-28.43-21.34-10.71,0-17.56,5.33t-6.86,14.91q0,15.11,17.51,19l22,4.77q34.45,7.57,34.45,40.45,0,18.81-12.82,30.37t-34.12,11.57Q3824.51,267.88,3815,228.71Z"/><path class="cls-1" d="M3987.19,249.65v16.74a103.32,103.32,0,0,1-16.05,1.49q-32.67,0-32.67-41.37V144.3h-20V127.68h20l.78-34.3,16.28-1.89v36.19h25.2V144.3h-25.2V230q0,21.1,18.06,21.1A71.45,71.45,0,0,0,3987.19,249.65Z"/><path class="cls-1" d="M4023.88,264.1h-17.51V127.68h15.39v31.88q8.13-22.56,16.33-29.24t16.78-6.69a57.06,57.06,0,0,1,6.92.54v20.26h-3.57q-14.49,0-24.09,13.1T4023.88,192Z"/><path class="cls-1" d="M4099.7,79.74v23.63h-18.85V79.74Zm-.56,47.94V264.1h-17.51V127.68Z"/><path class="cls-1" d="M4222.12,264.1h-17.28q-1-6.48-2-24.58-11.59,28.36-39.47,28.36-18.95,0-29.1-12.17t-10.14-29.22q0-20.7,14.49-34t49.28-13.33c3.13,0,8.1.19,14.94.54q0-16.2-2.06-23.43A20,20,0,0,0,4192,144.7q-6.69-4.32-17.62-4.32-26.64,0-31,24.58l-16.17-3.37q5.91-37.69,49.73-37.69,23.29,0,33.06,12.5t9.75,43.28v57.95A138.89,138.89,0,0,0,4222.12,264.1Zm-19.29-68.21q-10.69-.81-16.27-.81-20.75,0-32.23,8.26t-11.48,24.1A24.93,24.93,0,0,0,4149,244.5q6.18,7,17.89,7,15.84,0,26-13.95t10.2-32.76Q4203.17,201,4202.83,195.89Z"/><path class="cls-1" d="M4399.86,79.74V264.1H4384V240.73q-11.84,27.15-35.61,27.15-19.77,0-32.5-20.08T4303.19,197q0-31.36,12.59-52.25t33.46-20.89q20.28,0,33.11,22.42V79.74Zm-17.51,100.62q0-18-9-28.77t-21.07-10.8q-13,0-21.47,14t-8.42,39.44q0,27.42,7.75,41.73t21.24,14.32q12.27,0,21.63-12.42t9.37-29.18Z"/><path class="cls-1" d="M4509.24,223.44l16.28,4.06a56.24,56.24,0,0,1-17.4,28.93,44.46,44.46,0,0,1-30.44,11.45q-23.07,0-37.35-19.67t-14.27-51.58q0-32.56,14.83-52.65t37.24-20.08q22.08,0,35.51,18.51t13.77,55.37h-81.84q0,30.93,10.71,41.74t22.63,10.8Q4500.44,250.32,4509.24,223.44Zm-1-41.46a70.13,70.13,0,0,0-3.12-20.39,34.63,34.63,0,0,0-9.81-15.2,23.84,23.84,0,0,0-16.61-6.28q-13.05,0-22.14,11.35T4446.35,182Z"/><path class="cls-1" d="M4628.32,264.1h-17.5V79.74h17.5Z"/><path class="cls-1" d="M4751.42,264.1h-17.28q-1-6.48-2-24.58-11.6,28.36-39.47,28.36-19,0-29.1-12.17t-10.15-29.22q0-20.7,14.49-34t49.29-13.33c3.12,0,8.1.19,14.94.54q0-16.2-2.06-23.43a20.05,20.05,0,0,0-8.76-11.55q-6.69-4.32-17.61-4.32-26.65,0-31,24.58l-16.17-3.37q5.91-37.69,49.73-37.69,23.31,0,33.06,12.5t9.76,43.28v57.95A138.89,138.89,0,0,0,4751.42,264.1Zm-19.29-68.21q-10.71-.81-16.28-.81-20.74,0-32.22,8.26t-11.49,24.1a24.93,24.93,0,0,0,6.19,17.06q6.18,7,17.89,7,15.84,0,26-13.95t10.2-32.76Q4732.46,201,4732.13,195.89Z"/><path class="cls-1" d="M2112.39,529.81l22.65,6.28q-16.26,81.06-73.44,81-37.61,0-59-37.5t-21.41-92.25q0-56.52,22.35-90.8t59.94-34.28q55.74,0,71.56,78.73l-23.37,5.74q-12.78-58.47-48.33-58.46-26.28,0-40.72,27.17t-14.44,76.3q0,45,14.81,72.18t39.19,27.17Q2100.05,591.14,2112.39,529.81Z"/><path class="cls-1" d="M2216.32,617.14q-30.2,0-47.1-27.64t-16.91-68.57q0-43.26,19-69.11T2218.64,426q30.33,0,47.82,27.19T2284,521.11q0,42.36-18.87,69.2T2216.32,617.14Zm1.74-23.31q17.42,0,29.17-17.75T2259,520.84q0-37.65-12.34-54.6t-28.88-16.95q-17,0-28.74,17.13t-11.76,54.24q0,39.29,11.76,56.22T2218.06,593.83Z"/><path class="cls-1" d="M2514.58,612.12h-22.2V499.5q0-17.38-2-26.09t-9.51-16q-7.54-7.26-17-7.26-13.07,0-25.18,14.79t-12.12,45.1v102h-22.07V492.87q0-23.85-9.21-33.72T2376,449.29q-14.5,0-25.25,15.42T2340,503.81V612.12h-21.77V431h19.59v34.79Q2354.19,426,2382.94,426q15.81,0,26.85,12.73A62.54,62.54,0,0,1,2424,469.37q15.1-43.39,46.3-43.39a37,37,0,0,1,26.2,10.58,49.28,49.28,0,0,1,14.66,24.3q3.4,13.71,3.41,38.64Z"/><path class="cls-1" d="M2675.54,612.12h-20.61V577.51q-15.64,39.63-46.66,39.63-22.47,0-35.29-18.31t-12.82-52.05V431h22.78V546.67q0,26.9,9.08,37T2612,593.83a29.78,29.78,0,0,0,20-7.71q8.93-7.71,14.88-22a80.1,80.1,0,0,0,6-31.11V431h22.78Z"/><path class="cls-1" d="M2836.65,612.12h-21.33V495.74q0-25.11-8.86-35.33T2785,450.19q-17.42,0-29.25,17.21t-11.82,45.37v99.35h-22.79V431h21.19v33.35q17.85-38.37,46.3-38.37,16.39,0,27.94,10.49t15.82,23.58q4.27,13.09,4.28,47.34Z"/><path class="cls-1" d="M2905.74,367.34v31.38h-24.53V367.34ZM2905,431V612.12h-22.78V431Z"/><path class="cls-1" d="M3037.09,548.64l20.61,4.48q-4.35,30-19.3,47t-37.3,17q-30.34,0-46.23-27.64T2939,522q0-41.28,16.76-68.66T3001.39,426q23.94,0,38.39,17.66t17.92,45.64l-20.61,4.84q-5.79-44.82-35.05-44.83-18.84,0-29,19.82t-10.14,51.37q0,34.8,10.07,54.07t28.32,19.28Q3029.56,593.83,3037.09,548.64Z"/><path class="cls-1" d="M3203.57,612.12h-22.5q-1.31-8.61-2.61-32.64-15.11,37.66-51.38,37.66-24.67,0-37.88-16.16T3076,562.18q0-27.48,18.87-45.17T3159,499.32q6.09,0,19.45.72,0-21.53-2.69-31.11a26.45,26.45,0,0,0-11.39-15.34q-8.7-5.73-22.93-5.74-34.69,0-40.35,32.64l-21-4.48q7.69-50,64.74-50,30.33,0,43,16.58t12.7,57.48V577A187.91,187.91,0,0,0,3203.57,612.12Zm-25.11-90.56q-13.93-1.08-21.19-1.08-27,0-41.95,11t-15,32q0,13.32,8.06,22.66t23.29,9.34q20.61,0,33.89-18.51t13.29-43.51Q3178.9,528.4,3178.46,521.56Z"/><path class="cls-1" d="M3332.75,548.64l20.61,4.48q-4.37,30-19.31,47t-37.3,17q-30.33,0-46.23-27.64T3234.63,522q0-41.28,16.76-68.66T3297,426q24,0,38.39,17.66t17.93,45.64l-20.61,4.84q-5.8-44.82-35.06-44.83-18.84,0-29,19.82t-10.14,51.37q0,34.8,10.07,54.07T3297,593.83Q3325.22,593.83,3332.75,548.64Z"/><path class="cls-1" d="M3408.07,367.34v31.38h-24.53V367.34Zm-.72,63.66V612.12h-22.79V431Z"/><path class="cls-1" d="M3505.32,617.14q-30.2,0-47.1-27.64t-16.91-68.57q0-43.26,19-69.11T3507.64,426q30.33,0,47.83,27.19T3573,521.11q0,42.36-18.86,69.2T3505.32,617.14Zm1.74-23.31q17.42,0,29.17-17.75T3548,520.84q0-37.65-12.34-54.6t-28.88-16.95q-17,0-28.74,17.13t-11.75,54.24q0,39.29,11.75,56.22T3507.06,593.83ZM3550,369l-60.09,33.89-6.24-14.52,57.55-40.89Z"/><path class="cls-1" d="M3722.74,612.12h-21.33V495.74q0-25.11-8.86-35.33t-21.48-10.22q-17.42,0-29.25,17.21T3630,512.77v99.35h-22.79V431h21.19v33.35Q3646.25,426,3674.7,426q16.4,0,27.94,10.49t15.82,23.58q4.27,13.09,4.28,47.34Z"/><path class="cls-1" d="M3991.4,488.74V615.53h-15.17l-6.82-30.67q-18.3,32.28-54.46,32.28-39.21,0-61-36.43t-21.78-88.47q0-55.62,23.08-92.78t62.7-37.15q54.72,0,71.41,71l-23.52,7q-5.08-27.26-19-39.63t-30.48-12.37q-29.33,0-43.25,29.25T3859.17,491q0,47.58,15.61,74.4t42.45,26.84q20.89,0,34.91-17.17t14-47.36q0-5.58-.29-13.3h-49V488.74Z"/><path class="cls-1" d="M4057.73,612.12h-22.79V431h20v42.32q10.59-30,21.26-38.83t21.85-8.87a72.52,72.52,0,0,1,9,.72v26.89h-4.65q-18.87,0-31.35,17.4t-13.35,45.73Z"/><path class="cls-1" d="M4247.57,612.12h-22.49q-1.31-8.61-2.62-32.64-15.09,37.66-51.38,37.66-24.67,0-37.88-16.16T4120,562.18q0-27.48,18.87-45.17T4203,499.32q6.1,0,19.45.72,0-21.53-2.68-31.11a26.47,26.47,0,0,0-11.4-15.34q-8.7-5.73-22.93-5.74-34.7,0-40.35,32.64l-21-4.48q7.69-50,64.73-50,30.33,0,43,16.58T4244.52,500V577A187.91,187.91,0,0,0,4247.57,612.12Zm-25.11-90.56q-13.94-1.08-21.19-1.08-27,0-41.94,11t-14.95,32q0,13.32,8.05,22.66t23.3,9.34q20.61,0,33.89-18.51t13.28-43.51Q4222.9,528.4,4222.46,521.56ZM4231,369l-60.09,33.89-6.24-14.52,57.55-40.89Z"/><path class="cls-1" d="M4350.91,431v22.06h-34.83V612.12h-22.79V453.06h-25V431h25q.59-43.58,13.57-56.13t31.72-12.56a101.69,101.69,0,0,1,20.9,2.51v22.42a47,47,0,0,0-14.08-2.33q-15,0-22.14,8.16t-7.18,30.58V431Z"/><path class="cls-1" d="M4404.47,367.34v31.38h-24.53V367.34Zm-.72,63.66V612.12H4381V431Z"/><path class="cls-1" d="M4535.82,548.64l20.61,4.48q-4.35,30-19.3,47t-37.3,17q-30.34,0-46.23-27.64T4437.71,522q0-41.28,16.76-68.66T4500.12,426q23.94,0,38.39,17.66t17.92,45.64l-20.61,4.84q-5.79-44.82-35-44.83-18.84,0-29,19.82t-10.14,51.37q0,34.8,10.06,54.07T4500,593.83Q4528.3,593.83,4535.82,548.64Z"/><path class="cls-1" d="M4702.3,612.12h-22.5q-1.3-8.61-2.61-32.64-15.09,37.66-51.38,37.66-24.68,0-37.88-16.16t-13.21-38.8q0-27.48,18.87-45.17t64.15-17.69q6.11,0,19.45.72,0-21.53-2.68-31.11a26.51,26.51,0,0,0-11.4-15.34q-8.7-5.73-22.93-5.74-34.69,0-40.35,32.64l-21-4.48q7.68-50,64.73-50,30.33,0,43,16.58t12.7,57.48V577A187.91,187.91,0,0,0,4702.3,612.12Zm-25.11-90.56q-13.94-1.08-21.19-1.08-27,0-41.94,11t-15,32q0,13.32,8.05,22.66t23.3,9.34q20.59,0,33.89-18.51t13.28-43.51Q4677.63,528.4,4677.19,521.56Z"/><path class="cls-1" d="M2059.49,870.93h-15.77l-22.15-67.79h-34.41v67.79h-14.08V714.35h47.34q19.27,0,28.55,13.71a52.4,52.4,0,0,1,9.29,30,57.39,57.39,0,0,1-5.2,24,31.08,31.08,0,0,1-17.15,16.4Zm-72.33-83.74h31.41q12.4,0,18.52-8.54t6.12-20.94q0-12.39-6.47-19.27a21.43,21.43,0,0,0-16.32-6.88h-33.26Z"/><path class="cls-1" d="M2137.89,836.4l12.84,3.45A48.53,48.53,0,0,1,2137,864.42a33.7,33.7,0,0,1-24,9.72q-18.22,0-29.48-16.7t-11.26-43.81q0-27.66,11.7-44.72t29.39-17q17.41,0,28,15.72t10.87,47h-64.58q0,26.26,8.44,35.44t17.86,9.18Q2130.93,859.23,2137.89,836.4Zm-.79-35.21a63.81,63.81,0,0,0-2.47-17.32,29.71,29.71,0,0,0-7.74-12.91,18.07,18.07,0,0,0-13.11-5.33q-10.29,0-17.47,9.63t-8,25.93Z"/><path class="cls-1" d="M2245.59,737v14.34c-6.34,0-10.57,1-12.72,2.87s-3.56,5.35-4.26,10.32a49.54,49.54,0,0,1,8.53,28q0,15.82-9.28,27.19t-25,11.35a23.48,23.48,0,0,1-6.07-.69,34.79,34.79,0,0,0-6.07-1.26c-1.58,0-3.49,1-5.72,3a10.14,10.14,0,0,0-3.34,7.86q0,6.88,4.84,8.95t22.79,2.64q15.22.57,22.48,2.69t12.27,9.41q5,7.29,5,17.84,0,33.15-44.7,33.15-21.21,0-30.93-8.33t-9.72-22.22q0-16.87,13.55-23.2a23.54,23.54,0,0,1-8.71-18.68q0-13.43,12.32-20.52-11.53-12.16-11.53-30.62,0-17.19,9.85-28.2t24-11a34.69,34.69,0,0,1,18.21,4.93q1.32-11.35,6.12-15.71t14.56-4.36C2242.8,736.72,2244,736.8,2245.59,737Zm-58.78,129.28q-9.67,5.5-9.68,15.94,0,8.83,8,13.71t20.28,4.88a51.42,51.42,0,0,0,20.94-4.19q9.49-4.19,9.5-14.17a13.52,13.52,0,0,0-2.81-8.83,12.6,12.6,0,0,0-7.7-4.36,134.92,134.92,0,0,0-17-1.38A179.8,179.8,0,0,1,2186.81,866.23Zm16.54-49a17.42,17.42,0,0,0,14.35-7.06q5.53-7.05,5.54-18.29,0-11.48-5.76-18.76t-13.95-7.28q-7.83,0-13.9,6.82t-6.07,19.45q0,11.24,5.45,18.18A17.36,17.36,0,0,0,2203.35,817.25Z"/><path class="cls-1" d="M2275.77,714.35v20.08H2260.9V714.35Zm-.44,40.72V870.93h-13.81V755.07Z"/><path class="cls-1" d="M2334.72,874.14q-18.3,0-28.55-17.68t-10.25-43.86q0-27.68,11.53-44.2t28.68-16.54q18.39,0,29,17.4t10.6,43.46q0,27.09-11.44,44.26T2334.72,874.14Zm1.06-14.91q10.56,0,17.69-11.35t7.12-35.34q0-24.09-7.48-34.93t-17.51-10.84q-10.29,0-17.42,11t-7.13,34.7q0,25.13,7.13,36T2335.78,859.23Z"/><path class="cls-1" d="M2466.53,870.93H2453.6V796.48q0-16.05-5.37-22.59t-13-6.54q-10.56,0-17.73,11t-7.17,29v63.55h-13.82V755.07h12.85v21.34q10.83-24.54,28.07-24.55a23.6,23.6,0,0,1,16.94,6.71,35.34,35.34,0,0,1,9.59,15.09q2.59,8.37,2.59,30.28Z"/><path class="cls-1" d="M2563.68,870.93H2550q-.79-5.5-1.59-20.88-9.15,24.09-31.14,24.09-15,0-23-10.34t-8-24.81q0-17.58,11.44-28.89t38.89-11.32q3.71,0,11.79.46,0-13.77-1.62-19.91a16.93,16.93,0,0,0-6.91-9.8q-5.28-3.67-13.9-3.67-21,0-24.46,20.87l-12.76-2.86q4.66-32,39.24-32,18.39,0,26.09,10.61t7.7,36.77v49.21A126.68,126.68,0,0,0,2563.68,870.93ZM2548.45,813q-8.44-.69-12.84-.69-16.37,0-25.43,7t-9.06,20.46a22.12,22.12,0,0,0,4.88,14.49q4.88,6,14.12,6,12.49,0,20.55-11.84t8-27.83Q2548.72,817.38,2548.45,813Z"/><path class="cls-1" d="M2603.27,870.93h-13.81V714.35h13.81Z"/><path class="cls-1" d="M2677.19,870.93V714.35h40.3q25.43,0,39.59,22.6t14.17,55.29q0,33.15-13.82,55.92t-35,22.77Zm15-16.63h24.38q19.35,0,29.38-17.44t10-46q0-23.16-9.55-41.64t-29.87-18.47h-24.38Z"/><path class="cls-1" d="M2806.8,714.35v20.08h-14.87V714.35Zm-.44,40.72V870.93h-13.82V755.07Z"/><path class="cls-1" d="M2821.93,840.88l13.2-3.56q4.39,21.91,27.8,21.91a21.92,21.92,0,0,0,14.61-5q6-5,6-14.2,0-13.63-15.23-17.31l-18.73-4.63a31.77,31.77,0,0,1-17.51-10.78q-6.51-8-6.51-21.22,0-14.58,8.89-24.38t23.93-9.81q28.95,0,35.72,29.48l-12.67,3.56Q2876,766.78,2859,766.77q-8.46,0-13.86,4.53T2839.71,784q0,12.84,13.81,16.16l17.33,4q27.2,6.44,27.19,34.35,0,16-10.12,25.8T2861,874.14Q2829.41,874.14,2821.93,840.88Z"/><path class="cls-1" d="M2957.79,858.66v14.22a75.94,75.94,0,0,1-12.67,1.26q-25.78,0-25.78-35.14V769.18h-15.75V755.07h15.75l.61-29.13,12.85-1.61v30.74h19.89v14.11H2932.8V842q0,17.93,14.25,17.92A52.69,52.69,0,0,0,2957.79,858.66Z"/><path class="cls-1" d="M2986.74,870.93h-13.82V755.07h12.15v27.08q6.42-19.17,12.89-24.84t13.24-5.68a43,43,0,0,1,5.46.46V769.3h-2.82q-11.45,0-19,11.12t-8.09,29.26Z"/><path class="cls-1" d="M3046.57,714.35v20.08H3031.7V714.35Zm-.44,40.72V870.93h-13.81V755.07Z"/><path class="cls-1" d="M3114,858.66v14.22a75.94,75.94,0,0,1-12.67,1.26q-25.78,0-25.78-35.14V769.18h-15.75V755.07h15.75l.62-29.13,12.84-1.61v30.74h19.89v14.11H3089V842q0,17.93,14.26,17.92A52.6,52.6,0,0,0,3114,858.66Z"/><path class="cls-1" d="M3158.23,874.14q-18.3,0-28.55-17.68t-10.25-43.86q0-27.68,11.53-44.2t28.68-16.54q18.39,0,29,17.4t10.61,43.46q0,27.09-11.44,44.26T3158.23,874.14Zm1.06-14.91q10.56,0,17.69-11.35t7.12-35.34q0-24.09-7.48-34.93t-17.51-10.84q-10.29,0-17.42,11t-7.13,34.7q0,25.13,7.13,36T3159.29,859.23Z"/><path class="cls-1" d="M3338.26,818.28l13.73,4q-9.85,51.86-44.52,51.85-22.8,0-35.77-24t-13-59q0-36.17,13.55-58.09t36.34-21.92q33.79,0,43.38,50.36l-14.17,3.67q-7.74-37.39-29.3-37.4-15.93,0-24.68,17.38T3275.09,794q0,28.8,9,46.17t23.76,17.38Q3330.79,857.51,3338.26,818.28Z"/><path class="cls-1" d="M3438.92,870.93h-13.63q-.79-5.5-1.59-20.88-9.15,24.09-31.15,24.09-15,0-23-10.34t-8-24.81q0-17.58,11.44-28.89t38.89-11.32c2.47,0,6.39.15,11.79.46q0-13.77-1.63-19.91a16.87,16.87,0,0,0-6.9-9.8q-5.28-3.67-13.91-3.67-21,0-24.46,20.87L3364,783.87q4.66-32,39.25-32,18.39,0,26.09,10.61t7.7,36.77v49.21A126.72,126.72,0,0,0,3438.92,870.93ZM3423.7,813q-8.44-.69-12.84-.69-16.38,0-25.43,7t-9.07,20.46a22.13,22.13,0,0,0,4.89,14.49q4.88,6,14.12,6,12.49,0,20.55-11.84t8-27.83Q3424,817.38,3423.7,813Z"/><path class="cls-1" d="M3478.52,910.05h-13.81v-155h12.49v22.49q9.4-25.69,28-25.7,15.73,0,25.39,17.17t9.67,43.46q0,28.35-9.94,45t-25.52,16.64q-16.73,0-26.31-20.76Zm0-113.8V829q1.32,13.14,8.54,21.71t15,8.57q9.06,0,16.06-10.32t7-35.68q0-21.9-6.34-33.78T3502,767.58q-8.27,0-14.82,8.37A45.1,45.1,0,0,0,3478.52,796.25Z"/><path class="cls-1" d="M3575.22,714.35v20.08h-14.87V714.35Zm-.44,40.72V870.93H3561V755.07Z"/><path class="cls-1" d="M3642.62,858.66v14.22a75.94,75.94,0,0,1-12.67,1.26q-25.78,0-25.78-35.14V769.18h-15.75V755.07h15.75l.62-29.13,12.84-1.61v30.74h19.89v14.11h-19.89V842q0,17.93,14.26,17.92A52.6,52.6,0,0,0,3642.62,858.66Z"/><path class="cls-1" d="M3727.27,870.93h-13.64q-.8-5.5-1.58-20.88-9.15,24.09-31.15,24.09-15,0-23-10.34t-8-24.81q0-17.58,11.44-28.89t38.89-11.32q3.69,0,11.79.46,0-13.77-1.63-19.91a16.93,16.93,0,0,0-6.91-9.8q-5.28-3.67-13.9-3.67-21,0-24.46,20.87l-12.76-2.86q4.67-32,39.25-32,18.39,0,26.08,10.61t7.7,36.77v49.21A126.68,126.68,0,0,0,3727.27,870.93ZM3712.05,813q-8.45-.69-12.85-.69-16.36,0-25.43,7t-9.06,20.46a22.17,22.17,0,0,0,4.88,14.49q4.89,6,14.13,6,12.48,0,20.54-11.84t8-27.83C3712.31,818.45,3712.23,815.92,3712.05,813Z"/><path class="cls-1" d="M3766.87,870.93h-13.82V714.35h13.82Z"/><line class="cls-2" x1="1495.38" y1="103.35" x2="1495.38" y2="914.67"/><path class="cls-3" d="M924.41,850.18l-53.7,48.64L605.46,453.4h447.41v71.69h-22.18c-83.38,0-166.76-.05-250.14.17-32.16.09-39.48,12.19-23.34,39.85C808.88,653.66,861.06,741.92,913,830.3,916.64,836.43,920.11,842.65,924.41,850.18Z"/><path class="cls-3" d="M533,452.85c-89,150-176.34,297.35-265.23,447.24l-52.32-49.84c12.77-22.22,25.37-44.41,38.23-66.45q62.9-107.77,126-215.46c18.35-31.44,11.87-42.68-24.94-42.77q-120.81-.3-241.61-.21H88.2V452.85Z"/><path class="cls-3" d="M387.49,970.77,325.8,941.5,568,530.41l248.45,407-63.93,36.13c-32.17-53.84-63.71-106.64-95.29-159.42q-32-53.5-64.18-106.94c-16.74-27.67-34.25-27.51-50.27,0Q470.2,831.64,397.43,956C394.59,960.81,391.17,965.32,387.49,970.77Z"/><path class="cls-3" d="M572.56,40C630.35,39.9,677.08,85.55,678,143c.91,56.61-49,106.34-106,105.7-56.6-.63-104.47-48.84-104.34-105.07C467.83,86.54,514.85,40.06,572.56,40Z"/><path class="cls-3" d="M604.41,420.27H546.56V281.17c24.2,0,47.78-.76,71.25.53,5.91.32,12.5,6.28,17,11.24,23.67,26,46.77,52.47,73.39,82.54v-93h59.07V421.3c-26.12,0-50.91.6-75.63-.5-5.11-.23-10.71-6.13-14.75-10.62C654,384.64,631.45,358.74,604.41,328Z"/><path class="cls-3" d="M314.12,322.5c-21.56-3.77-43.28,5-65.57-10.36-11.61-8-33.26-1.41-50.38-1.41L196.38,320c9.88,3.56,19.54,8.12,29.71,10.48,22.3,5.2,45.13,8.28,67.24,14.16,16.77,4.45,30.79,14.62,30.57,34.22-.2,18.63-14.22,28.14-29.82,32.75-44.22,13.09-89.06,14.54-133.79,2.1-18.12-5-30.51-15.54-29.26-39.58,17.06,0,33.94-.22,50.8.21,2.88.07,6.41,2.27,8.43,4.56,18.1,20.5,47.83,22.37,73.91-.61-19.59-4.82-35.44-8.82-51.33-12.6-18.78-4.47-38.78-6.19-56-14.06-10.45-4.78-22.77-18.8-23-28.91s11.54-26,21.64-29.83c45.6-17.13,92.9-16.95,139-1.5,10,3.34,17,15.62,25.38,23.78Z"/><path class="cls-3" d="M1027.3,421.42c-21.2,0-37.66.67-54-.39-5.33-.34-13.42-4-15-8.19-6.48-17-19.14-18.32-34.38-17.63a469.94,469.94,0,0,1-49.51-.4c-16.74-1-31.08-.23-37.67,19.3-1.27,3.76-10.08,6.61-15.62,7-14.28,1-28.67.33-46.4.33,3.82-6.73,6.32-11.93,9.53-16.65,24.57-36.14,49.75-71.89,73.67-108.45,7.58-11.57,16.42-14,29.56-16C924.7,274.71,946.8,289,963.86,322,981.15,355.33,1004.2,385.74,1027.3,421.42ZM867.57,365h61.16L899.15,314.9Z"/><path class="cls-3" d="M513.4,312.49H412.66V333.8h92.11v28H412.35V390.1H517.62v30.21H350.68V282.13H513.4Z"/></svg>