<svg id="Capa_1" data-name="Capa 1" xmlns="http://www.w3.org/2000/svg" viewBox="0 0 297.66 303.4"><defs><style>.cls-1{fill:none;stroke:#fff;stroke-miterlimit:10;stroke-width:1.7px;}</style></defs><title>sena</title><path class="cls-1" d="M51.93,134.21c3.7-1.18,7.07-2.34,10.48-3.33,9.24-2.66,18.5-5.25,27.75-7.89a6,6,0,0,0,1.76-.8q12.87-8.77,25.7-17.6a4.93,4.93,0,0,0,1.2-1.21q8.82-12.84,17.61-25.7a5.76,5.76,0,0,0,.76-1.65q5.48-18.69,10.93-37.38a8.81,8.81,0,0,1,.38-.92c1,3,1.95,5.67,2.75,8.44,2.86,9.95,5.65,19.91,8.49,29.87a5.81,5.81,0,0,0,.78,1.65q8.74,12.81,17.53,25.59a5.61,5.61,0,0,0,1.38,1.37c8.48,5.84,16.95,11.7,25.5,17.44a15.81,15.81,0,0,0,4.35,1.59q17.25,5.1,34.51,10.17a1.62,1.62,0,0,1,.86.55c-4,.25-8,.56-12,.73-6.25.28-12.51.54-18.77.66-8.16.15-16.33.33-24.49.17-11.24-.21-22.48-.71-33.72-1.13-2.55-.09-5.09-.48-7.64-.48-2.38,0-4.76.38-7.14.51-4.81.26-9.63.56-14.44.68-9.15.23-18.3.48-27.45.47s-18.54-.23-27.81-.53c-6.09-.2-12.17-.71-18.25-1.09a9,9,0,0,1-1.06-.18m96.34-.14c-.42-7.79-.83-15.49-1.25-23.19a.76.76,0,0,0-.28,0c-5.29,1.64-10.59,3.26-15.87,5a1.82,1.82,0,0,0-.94,1.1c-1,3.17-1.93,6.37-2.91,9.55-.66,2.1-1.36,4.19-2.06,6.38l23.31,1.24m23.57-1.24a1.94,1.94,0,0,0,0-.42c-1.64-5.3-3.27-10.6-5-15.89a1.57,1.57,0,0,0-1-.76c-1.83-.6-3.69-1.12-5.53-1.7-3.49-1.07-7-2.16-10.48-3.26-.42,7.78-.84,15.49-1.26,23.27l23.18-1.24M131,113.34l15.9-3V87.56c-.65.46-1,.71-1.35,1-2.36,1.8-4.62,3.75-7.09,5.38a8.12,8.12,0,0,0-3.68,5.34c-1.08,4.67-2.47,9.27-3.78,14.08m18.9-3.06,16,3a4.52,4.52,0,0,0-.07-.6c-1.42-5.19-2.83-10.38-4.32-15.54a4.13,4.13,0,0,0-1.33-1.92c-1.58-1.31-3.28-2.49-4.92-3.74s-3.23-2.48-5-3.86c-.13,7.66-.26,15.06-.39,22.61m22.54,22.35H195a6.17,6.17,0,0,0-.35-.67c-2.51-3.31-5-6.64-7.57-9.92a3,3,0,0,0-1.44-.82c-3.12-.88-6.26-1.69-9.39-2.54-2.27-.63-4.53-1.28-6.89-2,1,5.45,2,10.73,3,15.9m-44.87-15.85c-5.63,1.53-11.13,3-16.63,4.53a2.62,2.62,0,0,0-1.22.92c-1.6,2-3.13,4.14-4.7,6.21-1,1.3-2,2.58-3.25,4.18h22.78q1.47-7.71,3-15.84m9-24.07c3.28-1.87,6.27-3.6,9.29-5.26a1.62,1.62,0,0,0,.94-1.65c0-4.74,0-9.47.07-14.21,0-2.07,0-4.15,0-6.44-1.35,2.32-2.52,4.57-3.9,6.68a21.93,21.93,0,0,0-3.26,8c-.26,1.36-.64,2.71-1,4.06-.69,2.82-1.4,5.64-2.17,8.79m-57.16,40h4.84l12.36-.06c1.48,0,3.23.37,4.35-.29s1.6-2.39,2.34-3.66c1.18-2,2.33-4,3.58-6.19-.37,0-.57,0-.76.08l-11,2.76c-1.91.48-4,.68-5.68,1.55-3.44,1.74-6.69,3.84-10,5.81M190,122.36c.29.54.45.86.63,1.17,1.51,2.64,3.05,5.26,4.51,7.93a1.82,1.82,0,0,0,1.82,1.09c5.85,0,11.69.14,17.53.22h3.2c-3.56-2.08-6.89-4-10.23-6a4.64,4.64,0,0,0-1.15-.41L196.53,124l-6.5-1.62M160.27,92.67c-.08-.52-.1-.83-.18-1.13-.44-1.8-1-3.57-1.33-5.38-1.31-6.57-3.19-12.9-7.18-18.42a20.33,20.33,0,0,1-1.09-1.93,1.5,1.5,0,0,0-.23-.32c0,5.82.18,11.82-.08,17.8-.12,2.82.65,4.43,3.26,5.54a68.94,68.94,0,0,1,6.83,3.84m23.38,24.61-.93-1.37c-1.8-2.56-3.55-5.15-5.42-7.65a14.37,14.37,0,0,0-2.84-2.83c-2.64-2-5.37-3.81-8.06-5.7-.24-.16-.5-.3-.9-.54,1.08,4.89,2.1,9.57,3.16,14.25a1.08,1.08,0,0,0,.73.63c4.67,1.07,9.35,2.11,14.26,3.21M131.43,99.22a4.46,4.46,0,0,0-.54.24l-9.69,6.83a2.64,2.64,0,0,0-.62.58c-2.37,3.37-4.72,6.74-7.08,10.12,0,0,0,.13.06.22,3.65-.81,7.26-1.82,11-2.36,2.74-.4,4.13-1.4,4.51-4.34.48-3.77,1.56-7.45,2.41-11.29M212.94,128c1.9,1.48,3.68,2.92,5.52,4.28a3,3,0,0,0,1.54.54c5.14.27,10.27.49,15.4.73,1.79.08,3.58.19,5.37.28v-.07L212.94,128m-64.07-86.5c0,.28,0,.44,0,.6q.49,10.37,1,20.71a1.57,1.57,0,0,0,.14.83c1.52,2,3.08,4,4.75,6.16-2-9.57-3.9-18.88-5.85-28.3m-6.65,28.29c1.52-2,2.94-3.72,4.28-5.53a3.29,3.29,0,0,0,.58-1.66c.27-5.42.5-10.85.74-16.28.07-1.56.17-3.13.27-4.92-2,9.55-3.91,18.87-5.87,28.39M84,128l-27.83,5.77c1.27,0,2.53-.12,3.8-.18,5.75-.26,11.51-.49,17.26-.76a1.76,1.76,0,0,0,.91-.26c1.92-1.47,3.82-3,5.86-4.57m41.88-29,.14.16c2-1.26,4.09-2.51,6.11-3.8.23-.15.32-.55.4-.86q.75-3,1.48-6.1c.19-.75.37-1.51.55-2.27-2.9,4-5.55,8-8.2,12.08-.17.26-.32.53-.48.79m36.77-12.93-.3.06a29.43,29.43,0,0,1,1,4.27,8.13,8.13,0,0,0,5.35,7.44,18.06,18.06,0,0,1,2.2,1.29A1,1,0,0,0,171,99l-8.37-12.89M100,120.28c0,.07,0,.13.07.19,2.94-.72,5.88-1.44,8.81-2.18a1.19,1.19,0,0,0,.72-.37c1.29-2,2.54-4.08,3.8-6.12l-.14-.12L100,120.28m96.87.21c0-.06,0-.11.07-.16l-13.32-8.64c1.1,2.13,2.32,4.11,3.56,6.08a1.26,1.26,0,0,0,.65.49c3,.76,6,1.49,9,2.23"/><path class="cls-1" d="M244.69,161.88c-2.44.8-4.85,1.66-7.31,2.37-10.19,2.93-20.39,5.81-30.57,8.73a7,7,0,0,0-1.87.89q-12.75,8.7-25.49,17.45a5.44,5.44,0,0,0-1.37,1.38c-5.77,8.38-11.55,16.76-17.23,25.2a14.06,14.06,0,0,0-1.6,3.94Q154,239.63,148.8,257.42a8.48,8.48,0,0,1-.38.81c-.66-2-1.3-3.79-1.83-5.61q-4.71-16.27-9.39-32.56a6.17,6.17,0,0,0-.8-1.77q-8.72-12.76-17.49-25.48a6.09,6.09,0,0,0-1.54-1.54c-8.34-5.75-16.67-11.52-25.1-17.15a18.68,18.68,0,0,0-5-1.9Q70,167.09,52.76,162a7.66,7.66,0,0,1-.8-.36c2.59-.2,4.86-.45,7.13-.54,7.57-.33,15.14-.68,22.72-.87,7.33-.18,14.67-.31,22-.24,9.6.09,19.2.33,28.8.63,5.71.18,11.43.89,17.14.83,6.91-.07,13.81-.77,20.72-1.06,5.4-.23,10.8-.31,16.2-.33,8.9,0,17.81-.13,26.72.08,8.72.2,17.44.73,26.16,1.13,1.69.07,3.37.2,5.06.3a2.68,2.68,0,0,0,.07.27m-94.77,23.31c.13,0,.29,0,.44-.08,5.25-1.63,10.51-3.25,15.74-4.93a1.8,1.8,0,0,0,.92-1.09c1.08-3.4,2.08-6.83,3.13-10.25.58-1.9,1.21-3.78,1.81-5.65l-23.3-1.26q.63,11.58,1.26,23.26m-24.89-22a2.49,2.49,0,0,0,0,.46c1.63,5.22,3.24,10.44,4.93,15.64a1.93,1.93,0,0,0,1.14,1c3.06,1,6.14,1.86,9.2,2.8,2.23.69,4.44,1.41,6.67,2.13.42-7.88.84-15.63,1.26-23.31L125,163.19m6.05,19.5c0,.17-.07.26-.05.32,1.49,5.47,3,10.94,4.49,16.39a2.48,2.48,0,0,0,.88,1.11c2.58,2,5.18,3.93,7.78,5.9l2.7,2.09V185.69l-15.8-3m34.9,0-16.11,3.05.39,22.37c.22,0,.27,0,.3,0a81,81,0,0,1,6.61-5,11.29,11.29,0,0,0,5.49-8.06c.81-4.13,2.16-8.16,3.32-12.38m3.43-3.49c.38-.07.65-.1.92-.17,3.92-1.09,7.79-2.41,11.77-3.19a10.61,10.61,0,0,0,7.5-5.06c1.55-2.49,3.53-4.72,5.44-7.21l-22.59-.41c-1,5.3-2,10.58-3,16m-67.34-15.63c0,.22,0,.31.07.37,2.56,3.37,5.13,6.75,7.72,10.1a2.29,2.29,0,0,0,1.1.68c3.6,1,7.2,2,10.8,3l5.78,1.6c-1-5.5-2.05-10.8-3.06-16.11l-22.41.4m44.84,67.39c0-1.13,0-1.91,0-2.68,0-6.06-.1-12.12-.11-18.17a1.56,1.56,0,0,0-1-1.53c-2.3-1.27-4.58-2.59-6.86-3.9-.74-.41-1.46-.84-2.37-1.37.1.56.15.88.23,1.19.6,2.47,1.28,4.92,1.82,7.41,1.12,5.06,2.38,10.05,5.5,14.36,1,1.38,1.73,2.95,2.74,4.69m3.35-.43s.21-.32.38-.62c1.64-2.82,3.29-5.62,4.89-8.45a9.62,9.62,0,0,0,.93-2.25c1.26-4.94,2.46-9.89,3.68-14.83a6.42,6.42,0,0,0,.08-1c-3.21,1.82-6.29,3.54-9.34,5.33a1.46,1.46,0,0,0-.6,1.06c0,7,0,14,0,20.73M79.67,163.29a1.77,1.77,0,0,0,0,.2c2.78,1.62,5.52,3.28,8.34,4.82a23.12,23.12,0,0,0,4,1.63c1.28.42,2.63.65,4,1l11,2.73c-.28-.54-.48-.94-.69-1.32-1.5-2.61-3-5.19-4.48-7.83a1.69,1.69,0,0,0-1.7-1c-4.62,0-9.24-.11-13.86-.16-2.16,0-4.33,0-6.49,0m137.62.2c-7,0-14,0-20.93,0a1.5,1.5,0,0,0-1,.73c-1.64,2.8-3.24,5.63-4.86,8.45-.14.25-.24.53-.42.92l7.81-1.92c3.07-.76,6.31-1.12,9.17-2.37,3.57-1.57,6.83-3.87,10.2-5.84m-85.83,33.42c-1.09-4.93-2.11-9.61-3.19-14.28a1.39,1.39,0,0,0-.91-.75c-2.59-.62-5.2-1.17-7.81-1.75l-6.26-1.39c1.85,2.64,3.52,5,5.21,7.39a15.45,15.45,0,0,0,2.68,3.51c3.26,2.5,6.69,4.76,10.28,7.27m52-18a1.73,1.73,0,0,0-.46-.05c-4.56,1-9.14,2-13.69,3a1.4,1.4,0,0,0-.74.93c-.42,1.67-.77,3.36-1.15,5-.65,2.94-1.3,5.88-2,9,3.05-2.14,6-4.08,8.75-6.18a16.83,16.83,0,0,0,3.26-3.27c2.07-2.75,4-5.62,6-8.54M55.85,162.17,84,168a22.25,22.25,0,0,1-2.07-1.62c-2.58-2.6-5.59-3.51-9.32-3.45-5.66.09-11.34-.47-16.76-.74M212.94,168l27.77-5.74c-6.3.27-13.19.55-20.09.86a3.28,3.28,0,0,0-1.66.25c-2,1.44-3.9,3-6,4.63m-64.08,86.55c2-9.47,3.89-18.79,5.85-28.31-1.48,1.89-2.89,3.61-4.19,5.4a3.86,3.86,0,0,0-.67,2c-.2,3.7-.28,7.4-.45,11.11-.15,3.24-.35,6.47-.54,9.8m-6.64-28.32c2,9.53,3.89,18.81,5.82,28.16,0-.19.05-.31.05-.43q-.5-10.49-1-21a1.53,1.53,0,0,0-.23-.8c-1.5-2-3-3.89-4.64-6m28.83-29.27-.15-.15c-1.92,1.19-3.85,2.37-5.77,3.58a1.44,1.44,0,0,0-.65.69c-.76,3-1.49,6.1-2.22,9.16l.15,0Zm-44.85-.05-.2.21,8.53,13.16c-.58-3.07-1.3-6.09-2-9.1a.83.83,0,0,0-.3-.51c-2-1.27-4-2.51-6-3.76m-13-12.59.15-.14c-1.19-1.93-2.36-3.87-3.59-5.76a2.12,2.12,0,0,0-1.17-.75c-2.55-.67-5.1-1.29-7.66-1.91a4.57,4.57,0,0,0-.94,0l13.21,8.57m83.63-8.57c-.28,0-.4-.09-.51-.06-2.79.66-5.59,1.33-8.37,2a1.15,1.15,0,0,0-.64.35c-1.3,2-2.57,4.11-3.85,6.17l.17.12,13.2-8.59"/><path class="cls-1" d="M228.7,38.83a131.33,131.33,0,0,1,34.54,34.66,129.84,129.84,0,0,1,22.93,70.62c1.52,53.67-28.43,93.75-57.3,112.8,32.46-28.9,50.22-65,50.21-108.94s-17.77-80-50.38-109.14"/><path class="cls-1" d="M68.06,39.18C35.74,67.93,17.88,104,17.92,148.1S35.87,228.24,68.31,257c-32.7-21.66-58.43-62.7-57.57-111.27C11.66,94.46,41,56.88,68.06,39.18"/><path class="cls-1" d="M177.12,144.6v11.51h-1.93c0-.44-.06-.87-.06-1.3V142.7c0-1.93,0-1.93,2.05-2.69,2.13,3.81,4.27,7.63,6.59,11.76.07-.64.13-.93.13-1.22,0-2.67.09-5.36,0-8-.06-1.41.5-2,2-2.25,0,.44.06.86.06,1.28,0,4.36,0,8.73,0,13.1,0,.47-.24,1.23-.55,1.34a1.39,1.39,0,0,1-1.93-.7c-1.73-3.26-3.58-6.47-5.39-9.7l-.6-1.05-.29.06"/><path class="cls-1" d="M209.51,155.56h-2.1V140.93c2.86,0,5.72-.05,8.58,0,1,0,2.2,1.63,2.22,2.61,0,.46,0,.91,0,1.36.06,1.22.18,2.45-1.74,3,2.15.84,1.72,2.39,1.73,3.77,0,1.19,0,2.37,0,3.64h-2.09v-6.12h-6.62ZM216,143h-6.44V147H216Z"/><path class="cls-1" d="M231.73,155.15h-2.17v-5h-6.5v5.1l-2.18.1V143.73a3.27,3.27,0,0,1,2.68-2.69c1.82,0,3.63,0,5.44,0,.84,0,2.71,1.56,2.72,2.36,0,3.86,0,7.73,0,11.71m-8.62-7.21h6.35v-4.76h-6.35Z"/><path class="cls-1" d="M204.75,140.54c-.95,1.67-2.06,2.47-3.82,2.25a37.77,37.77,0,0,0-4.65,0v10.83h6.23V149.3h-4.35c1.13-2.2,2.18-2.52,6.61-2.08,0,2.07,0,4.16,0,6.24,0,.73-1.74,2.2-2.51,2.23-1.85.08-3.7.14-5.55.15-1,0-2.61-1.7-2.62-2.72q0-5,0-9.9a4.08,4.08,0,0,1,2.57-2.67c2.7,0,5.41,0,8.11,0"/><path class="cls-1" d="M163.44,140.09h9.7c-.69,1.77-1.68,2.45-3.38,2.35l-.49-.06c-3.82-.38-3.86-.32-3.79,3.45,0,.8.23,1.09,1.05,1.07,1.88-.05,3.77,0,5.79,0-.91,1.53-1.83,2.63-3.72,2.32a18.91,18.91,0,0,0-3,0V154h7.5a3,3,0,0,1-3,2.37h-6.6Z"/><path class="cls-1" d="M161.49,142.22h-8.62v11.9h8.89c-1,1.29-1.61,2.73-3.56,2.47a11.93,11.93,0,0,0-3.58,0c-1.83.33-2.84-.67-3.74-1.95a2.2,2.2,0,0,1-.29-1.14c0-3.55,0-7.09,0-10.64a3.5,3.5,0,0,1,3.14-3.1l3.83,0c2.46,0,2.46,0,3.94,2.38"/><path class="cls-1" d="M104.71,150.19c.91-3.28,1.81-6.56,2.75-9.95A2.2,2.2,0,0,1,109,142.5c-.08,4,0,8.08,0,12.13v1.26h-1.19V145.05l-.24,0c-.68,2.52-1.41,5-2,7.55-.22.93-.58,1.3-1.66,1-.69-2.68-1.42-5.46-2.14-8.25l-.2,0v10.45l-1.23.12c0-.52-.07-1-.07-1.4,0-3.79.05-7.59,0-11.38a2.5,2.5,0,0,1,1.6-2.74q1.34,4.93,2.65,9.87l.25,0"/><path class="cls-1" d="M137.91,156.61c.24-.52.34-.69.41-.89a2,2,0,0,1,2.59-1.56,19.24,19.24,0,0,0,3.14,0v-5h-2.64c-1.57,0-2.54-.51-2.62-2-.12-2.2-.72-4.54.73-6.58a1.75,1.75,0,0,1,1.11-.73c1.8-.07,3.62,0,5.43,0-.42,2-.84,2.39-2.79,2.4h-3.06v4.57h2.11c2.06,0,2.66.19,2.94,2.18.33,2.35.77,4.84-.71,7.06-.16.24-.44.56-.68.57-1.91,0-3.83,0-6,0"/><path class="cls-1" d="M80.6,140.79c1.73,0,3.37,0,5,0,.68,0,1.77,1.55,1.77,2.53,0,3.25,0,6.51,0,9.76a2.56,2.56,0,0,1-2.66,2.47c-.79,0-1.57,0-2.35,0-.57,0-1.14-.11-1.76-.17ZM85.9,143H82v10.35H85.9Z"/><path class="cls-1" d="M137,148.31c0,1.69,0,3.38,0,5.07a3.32,3.32,0,0,1-.12,1.09c-.65,1.8-.92,2-2.84,2-.46,0-.91,0-1.36,0a2.61,2.61,0,0,1-2.59-2.71q0-5.51,0-11a2.6,2.6,0,0,1,2.69-2.69c.41,0,.82-.06,1.23-.06,2,0,3,1,3,3,0,1.77,0,3.55,0,5.32m-1.52,5.79V142.26c-1,0-2,0-2.92,0s-1.22.28-1.2,1.23c.06,3.17,0,6.35,0,9.52,0,.35,0,.71.09,1.1Z"/><path class="cls-1" d="M234.6,141.43h10.15c-1.05,1.37-2,2.13-3.66,1.89a30.52,30.52,0,0,0-4.29,0v3.88h7c-1.07,1.05-1.61,2.16-3.12,2-1.26-.1-2.54,0-3.95,0v5.89H234.6Z"/><path class="cls-1" d="M118.13,156.21V140.09a23.31,23.31,0,0,1,5.09.12,3.16,3.16,0,0,1,1.6,2.45c.17,3.7.12,7.41.05,11.12,0,1.7-1.19,2.53-2.89,2.44-1.26-.06-2.53,0-3.85,0m5.38-13.66h-4v11.34h4Z"/><path class="cls-1" d="M58.28,148c1.3,2.39.4,4.75.73,7-1.11.29-1.53,0-1.48-1.1.08-1.51,0-3,0-4.65H53.49v5.64l-1.37.1V141.3a39.91,39.91,0,0,1,5.47.09c.54.08,1.16,1.24,1.33,2a10,10,0,0,1,0,3.19,4.11,4.11,0,0,1-.66,1.38m-.78-4.59h-4V147h4Z"/><path class="cls-1" d="M68.18,141a26.16,26.16,0,0,1,5.11.1,3,3,0,0,1,1.64,2.26c.19,3.16.12,6.34.06,9.51a2.59,2.59,0,0,1-2.72,2.45c-1.35,0-2.7,0-4.09,0Zm1.28,12.14h4v-10.1c-1.16,0-2.23,0-3.3,0-.25,0-.69.37-.69.58,0,3.12,0,6.24,0,9.49"/><path class="cls-1" d="M112.19,142.6v4.29h4.44c-.71.92-1.1,1.86-1.79,2.2s-1.68.07-2.7.07v4.64h4.67c-.44,2-.74,2.31-2.55,2.3l-3,0c-.12,0-.24-.05-.46-.09V140.38h5.91c-.3,1.76-.7,2.11-2.46,2.12-.69,0-1.37.07-2.1.1"/><path class="cls-1" d="M89.07,140.75h6c-.38,2.94-2.84,1.82-4.58,2.14v4h4c-.31,2.64-2.26,2.27-4,2.25v4.41h4.59c-.48,2-.84,2.22-2.59,2.14-1.11,0-2.21,0-3.39,0Z"/><path class="cls-1" d="M62,153.16H66.8c-.45,1.77-.71,2-2.37,2H60.79V141.3h6c-.57,2.79-2.94,1.64-4.71,2V147H66.3c-.79,2-.8,2.12-2.86,2-1.15-.05-1.55.31-1.43,1.45a27.17,27.17,0,0,1,0,2.72"/><rect class="cls-1" x="189.02" y="140.51" width="2.05" height="15.36"/><path class="cls-1" d="M128,156.3h-1.13V140.14L128,140Z"/></svg>